<svg xmlns="http://www.w3.org/2000/svg" width="48.893" height="50" viewBox="0 0 48.893 50"><defs><style>.a{fill:#c49966;}</style></defs><path class="a" d="M6.7,63.3A6.869,6.869,0,0,1,.353,59a7.028,7.028,0,0,1,1.49-7.587l7.6-7.665V40.019a1.06,1.06,0,0,1,.306-.75L13.1,35.862l-2.649-2.685L9.135,34.512a1.04,1.04,0,0,1-1.483,0L1.478,28.252a4.054,4.054,0,0,1,0-5.679,3.926,3.926,0,0,1,5.6,0l6.177,6.259a1.074,1.074,0,0,1,0,1.5L11.942,31.67l2.649,2.685,3-3.053-.018-.193a15.861,15.861,0,0,1,8.536-15.661,15.45,15.45,0,0,1,17.493,2.427,15.962,15.962,0,0,1,4.067,17.41A15.615,15.615,0,0,1,33.111,45.4h0c-.5,0-1.009-.025-1.51-.073l-.191-.019L23.547,53.26a1.032,1.032,0,0,1-.74.31H19.125l-7.559,7.693A6.782,6.782,0,0,1,6.7,63.3ZM3.324,52.92a4.885,4.885,0,0,0,0,6.843,4.731,4.731,0,0,0,6.753,0l1.316-1.342L4.647,51.583ZM29.153,26.093A8.431,8.431,0,0,0,23.2,28.607L11.536,40.459v3.734a1.073,1.073,0,0,1-.306.753L6.136,50.087l6.741,6.83,5.072-5.163a1.048,1.048,0,0,1,.743-.31h3.685L34.418,39.269a7.855,7.855,0,0,0-.3-11.306A7.323,7.323,0,0,0,29.153,26.093Zm.012-2.135a9.388,9.388,0,0,1,6.355,2.431A10,10,0,0,1,35.9,40.776l-2.53,2.553,1.142-.119A13.68,13.68,0,1,0,19.66,28.157l-.117,1.159,2.172-2.209a10.552,10.552,0,0,1,7.451-3.149Zm-24.89-.431a1.863,1.863,0,0,0-1.722,1.165,1.906,1.906,0,0,0,.4,2.058l5.435,5.509L11.03,29.59,5.594,24.08a1.838,1.838,0,0,0-1.318-.552Z" transform="translate(0.17 -13.3)"/><path class="a" d="M236.9,183.518a1.669,1.669,0,0,1-1.181-2.852l3.28-3.282a1.671,1.671,0,1,1,2.363,2.363l-3.28,3.282A1.665,1.665,0,0,1,236.9,183.518Z" transform="translate(-212.084 -160.596)"/><path class="a" d="M277.321,223.928a1.671,1.671,0,0,1-1.181-2.852l3.28-3.282a1.671,1.671,0,1,1,2.363,2.363l-3.28,3.282a1.661,1.661,0,0,1-1.182.487Z" transform="translate(-248.533 -197.039)"/><path class="a" d="M94.282,16.614a3.053,3.053,0,0,1,3.044,3.05.892.892,0,0,0,1.783,0,3.053,3.053,0,0,1,3.05-3.05.892.892,0,0,0,0-1.783,3.053,3.053,0,0,1-3.05-3.05.892.892,0,0,0-1.783,0,3.053,3.053,0,0,1-3.044,3.055.892.892,0,1,0,0,1.783Zm2.8-.892a4.828,4.828,0,0,0,1.139-1.147,4.829,4.829,0,0,0,1.147,1.147,4.81,4.81,0,0,0-1.147,1.147,4.81,4.81,0,0,0-1.146-1.147Z" transform="translate(-84.977 -10.89)"/><path class="a" d="M401.422,306.033a3.113,3.113,0,0,1,3.109,3.109.91.91,0,0,0,1.819,0,3.113,3.113,0,0,1,3.109-3.109.911.911,0,1,0,0-1.821,3.113,3.113,0,0,1-3.109-3.109.91.91,0,0,0-1.819,0,3.113,3.113,0,0,1-3.109,3.109.91.91,0,0,0,0,1.819Zm2.851-.909a4.938,4.938,0,0,0,1.169-1.17,4.962,4.962,0,0,0,1.168,1.17,4.939,4.939,0,0,0-1.17,1.169,4.915,4.915,0,0,0-1.168-1.169Z" transform="translate(-362.497 -268.023)"/></svg>