<svg id="Icons-03" xmlns="http://www.w3.org/2000/svg" width="50.28" height="50.28" viewBox="0 0 50.28 50.28">
  <path id="Path_181" data-name="Path 181" d="M86.743,67.815a.965.965,0,1,0-.453,1.876,17.381,17.381,0,1,1-8.178,0,.965.965,0,1,0-.452-1.876A19.407,19.407,0,0,0,67.1,74.548,19.07,19.07,0,0,0,62.889,86.57a19.312,19.312,0,0,0,38.625,0,19.075,19.075,0,0,0-4.208-12.022A19.407,19.407,0,0,0,86.743,67.815Z" transform="translate(-57.061 -61.41)" fill="#c49966"/>
  <path id="Path_182" data-name="Path 182" d="M60.191,33.281l-1.148-2.143.191-2.65a5.011,5.011,0,0,0-1.815-4.437l-1.906-1.562-.751-2.259A5.039,5.039,0,0,0,51.326,16.6l-2.352-.712-1.8-2.084a5.024,5.024,0,0,0-4.318-1.747l-2.444.244-2.4-1.205a5.009,5.009,0,0,0-4.724,0l-2.145,1.148-2.65-.191a5.011,5.011,0,0,0-4.437,1.815l-1.562,1.906-2.259.751A5.045,5.045,0,0,0,16.6,19.958l-.712,2.353-2.084,1.8a5.027,5.027,0,0,0-1.747,4.318l.244,2.444-1.205,2.4a5.009,5.009,0,0,0,0,4.724l1.148,2.143-.191,2.65a5.011,5.011,0,0,0,1.815,4.437L15.773,48.8l.751,2.259a5.039,5.039,0,0,0,3.436,3.631l2.352.713,1.8,2.084a5.023,5.023,0,0,0,4.318,1.747l2.444-.244,2.4,1.205a5.009,5.009,0,0,0,4.724,0l2.143-1.148,2.65.191a5.015,5.015,0,0,0,4.437-1.814L48.8,55.512l2.259-.751a5.047,5.047,0,0,0,3.631-3.435l.714-2.353,2.084-1.8a5.026,5.026,0,0,0,1.747-4.32l-.244-2.444,1.205-2.4a5.009,5.009,0,0,0,0-4.724Zm-1.737,3.808-.013.024L57.1,39.782a.991.991,0,0,0-.1.537l.272,2.729A3.065,3.065,0,0,1,56.2,45.683l-2.309,1.994a.976.976,0,0,0-.3.458L52.8,50.759a3.078,3.078,0,0,1-2.242,2.1c-.029.007-.059.015-.087.024l-2.57.853a.982.982,0,0,0-.45.31L45.72,56.175A3.058,3.058,0,0,1,43,57.28h-.039l-2.952-.21a.989.989,0,0,0-.535.113l-2.392,1.283a3.044,3.044,0,0,1-2.882-.005l-.024-.013L31.508,57.11a.986.986,0,0,0-.44-.1h-.1l-2.729.272a3.063,3.063,0,0,1-2.635-1.071L23.612,53.9a.985.985,0,0,0-.459-.3l-2.624-.794a3.078,3.078,0,0,1-2.1-2.242c-.007-.029-.015-.058-.024-.087l-.853-2.57a.983.983,0,0,0-.315-.45L15.111,45.72A3.058,3.058,0,0,1,14.005,43c0-.013,0-.025,0-.039l.21-2.952a.987.987,0,0,0-.113-.535l-1.275-2.4a3.051,3.051,0,0,1,0-2.882l.013-.024L14.177,31.5a.991.991,0,0,0,.1-.537l-.272-2.729A3.065,3.065,0,0,1,15.076,25.6l2.309-1.994a.985.985,0,0,0,.3-.457l.794-2.624a3.078,3.078,0,0,1,2.242-2.1c.029-.007.058-.015.087-.024l2.57-.853a.983.983,0,0,0,.45-.315l1.738-2.125a3.058,3.058,0,0,1,2.719-1.105h.039l2.952.21a.986.986,0,0,0,.534-.113L34.2,12.819a3.044,3.044,0,0,1,2.882,0l.024.013,2.667,1.338a.994.994,0,0,0,.538.1L43.044,14a3.06,3.06,0,0,1,2.635,1.071l1.994,2.309a.993.993,0,0,0,.461.307l2.624.794a3.078,3.078,0,0,1,2.1,2.242.9.9,0,0,0,.024.087l.853,2.57a.982.982,0,0,0,.31.45l2.13,1.738a3.056,3.056,0,0,1,1.105,2.718v.04l-.21,2.952a.983.983,0,0,0,.113.534L58.466,34.2a3.051,3.051,0,0,1-.005,2.882Z" transform="translate(-10.503 -10.503)" fill="#c49966"/>
  <path id="Path_183" data-name="Path 183" d="M149.649,114.785a1.04,1.04,0,0,0-.94-.6h-5.5a1.04,1.04,0,0,0-1.04,1.041v15.756a1.04,1.04,0,0,0,1.04,1.04h5.5a1.039,1.039,0,0,0,.959-.636,19.064,19.064,0,0,1,2.462.573,14.98,14.98,0,0,0,3.976.721h6.007a4.174,4.174,0,0,0,4.026-2.634,3.731,3.731,0,0,0,.191-2.336,3.772,3.772,0,0,0,.859-1.149,3.966,3.966,0,0,0,.283-2.81,3.9,3.9,0,0,0,1.027-3.662,3.135,3.135,0,0,0,.6-4.986,3.255,3.255,0,0,0-2.257-.89h-8.473a2.823,2.823,0,0,1-.477-2.781,5.4,5.4,0,0,0-.151-4.966,4.238,4.238,0,0,0-3.782-2.2,1.969,1.969,0,0,0-1.68,1.642,6.118,6.118,0,0,0-.087.89,7.347,7.347,0,0,1-.809,3.3,8.654,8.654,0,0,0-.779,2.7c-.2,1.2-.3,1.772-.957,1.993Zm-5.4,1.485h3.417v13.671h-3.417Zm8.406-3.13a7.027,7.027,0,0,1,.575-2.085,9.445,9.445,0,0,0,1.042-4.157,5.157,5.157,0,0,1,.047-.578h0a2.424,2.424,0,0,1,1.578,1.118,3.325,3.325,0,0,1,.07,3.2,4.806,4.806,0,0,0,.03,3.594,1.04,1.04,0,0,0,.145,2.07h10.693a1.185,1.185,0,0,1,.822.315,1.063,1.063,0,0,1,.326.793,1.122,1.122,0,0,1-1.118,1.055l-2.679.058a1.041,1.041,0,0,0,.022,2.081h.023l2.225-.049a1.685,1.685,0,0,1-.042,1.05,1.393,1.393,0,0,1-1.36,1.026,1.041,1.041,0,1,0,0,2.081,3.735,3.735,0,0,0,.464-.029,2.036,2.036,0,0,1-.209.97,1.392,1.392,0,0,1-1.283.857,1.041,1.041,0,1,0,0,2.081c.111,0,.214-.006.319-.014a1.976,1.976,0,0,1-.157.722,2.125,2.125,0,0,1-2.086,1.306H156.1a13.213,13.213,0,0,1-3.421-.644,19.827,19.827,0,0,0-2.936-.655V116.9c2.349-.429,2.673-2.326,2.914-3.755Z" transform="translate(-129.256 -95.077)" fill="#c49966"/>
  <path id="Path_184" data-name="Path 184" d="M241.409,64.967a1.041,1.041,0,1,0,0-2.081h0a1.041,1.041,0,1,0,0,2.081Z" transform="translate(-216.269 -57.058)" fill="#c49966"/>
</svg>
