<svg xmlns="http://www.w3.org/2000/svg" width="48.74" height="49.702" viewBox="0 0 48.74 49.702">
  <g id="Icons_Cores_drilled" data-name="Icons_Cores drilled" transform="translate(0.25 0.25)">
    <path id="Path_258" data-name="Path 258" d="M31.959,50.662a.817.817,0,0,1-.616-.283l-3.8-4.363a.857.857,0,0,1-.209-.562V17.208H24.353a.836.836,0,0,1-.825-.844V9.456H11.518A3.72,3.72,0,0,1,7.84,5.7V2.3a.836.836,0,0,1,.826-.844H55.253a.837.837,0,0,1,.826.844V5.7A3.72,3.72,0,0,1,52.4,9.451H40.4v6.913a.836.836,0,0,1-.825.844H36.59V45.453a.857.857,0,0,1-.209.563l-3.8,4.362A.817.817,0,0,1,31.959,50.662Zm-2.978-6.625v1.1l2.978,3.416,2.978-3.416V41Zm0-6.787v4.9l5.955-3.037V34.208Zm0-6.788v4.9l5.955-3.037v-4.9Zm0-1.886,5.955-3.032V23.026H28.981Zm0-7.237h5.955v-4.13H28.981Zm-3.8-5.817H38.74V9.451H25.177ZM9.491,5.7a2.048,2.048,0,0,0,2.027,2.065H52.4A2.048,2.048,0,0,0,54.428,5.7V3.148H9.491Z" transform="translate(-7.84 -1.46)" fill="#c49966" stroke="#c49966" stroke-width="0.5"/>
    <path id="Path_259" data-name="Path 259" d="M8.666,422.015a.83.83,0,0,1-.826-.831v-6.223a.83.83,0,0,1,.826-.831H23.4a.83.83,0,0,1,.825.831v3.418l1.988,2.253a.838.838,0,0,1,.136.892.828.828,0,0,1-.753.491Zm.825-1.662h14.27l-.975-1.1a.83.83,0,0,1-.209-.552v-2.9H9.491Z" transform="translate(-7.84 -372.813)" fill="#c49966" stroke="#c49966" stroke-width="0.5"/>
    <path id="Path_260" data-name="Path 260" d="M304.843,422.024a.831.831,0,0,1-.617-1.383l1.991-2.252V414.97a.828.828,0,0,1,.825-.83h14.734a.828.828,0,0,1,.825.83v6.223a.829.829,0,0,1-.825.831Zm3.022-3.319a.834.834,0,0,1-.208.552l-.975,1.1h14.27V415.8H307.865Z" transform="translate(-274.363 -372.822)" fill="#c49966" stroke="#c49966" stroke-width="0.5"/>
    <path id="Path_261" data-name="Path 261" d="M326.794,294.383a.815.815,0,0,1-.584-.243.835.835,0,0,1,0-1.174l2.852-2.872a.822.822,0,0,1,1.167,0,.835.835,0,0,1,0,1.174l-2.856,2.871A.817.817,0,0,1,326.794,294.383Z" transform="translate(-294.118 -260.977)" fill="#c49966" stroke="#c49966" stroke-width="0.5"/>
    <path id="Path_262" data-name="Path 262" d="M336.286,350.787a.818.818,0,0,1-.584-.243.834.834,0,0,1,0-1.175l1.9-1.914a.822.822,0,0,1,1.167,0,.835.835,0,0,1,0,1.174l-1.9,1.914A.818.818,0,0,1,336.286,350.787Z" transform="translate(-302.659 -312.594)" fill="#c49966" stroke="#c49966" stroke-width="0.5"/>
    <path id="Path_263" data-name="Path 263" d="M130.24,294.373a.814.814,0,0,1-.584-.243l-2.848-2.872a.83.83,0,0,1,.584-1.418.817.817,0,0,1,.584.243l2.848,2.876a.835.835,0,0,1,0,1.174A.817.817,0,0,1,130.24,294.373Z" transform="translate(-114.677 -260.967)" fill="#c49966" stroke="#c49966" stroke-width="0.5"/>
    <path id="Path_264" data-name="Path 264" d="M129.3,350.787a.821.821,0,0,1-.579-.243l-1.9-1.915a.833.833,0,0,1,0-1.174.822.822,0,0,1,1.167,0l1.9,1.914a.835.835,0,0,1,0,1.174A.816.816,0,0,1,129.3,350.787Z" transform="translate(-114.693 -312.594)" fill="#c49966" stroke="#c49966" stroke-width="0.5"/>
  </g>
</svg>
