<svg id="Icons-08" xmlns="http://www.w3.org/2000/svg" width="47.467" height="50" viewBox="0 0 47.467 50">
  <path id="Path_191" data-name="Path 191" d="M245.788,232.962a11.115,11.115,0,0,1-7.887-3.24,10.961,10.961,0,0,1-3.263-7.835,1,1,0,0,0-2,0,10.967,10.967,0,0,1-3.263,7.834,11.119,11.119,0,0,1-7.887,3.24,1,1,0,1,0,0,2,11.142,11.142,0,0,1,11.151,11.107,1,1,0,0,0,2,0,11.145,11.145,0,0,1,11.151-11.107,1,1,0,1,0,0-2Zm-5.122,1.005-.749.373a13.267,13.267,0,0,0-5.908,5.9l-.373.745-.372-.745a13.276,13.276,0,0,0-5.91-5.9l-.748-.373.749-.372a13.218,13.218,0,0,0,5.909-5.875l.372-.742.372.742a13.223,13.223,0,0,0,5.91,5.871Z" transform="translate(-199.319 -197.033)" fill="#c49966"/>
  <path id="Path_192" data-name="Path 192" d="M23.785,148.977a7.956,7.956,0,0,1-7.975-7.919,1,1,0,1,0-2,0,7.956,7.956,0,0,1-7.975,7.919,1,1,0,0,0,0,2,7.968,7.968,0,0,1,7.975,7.942,1,1,0,1,0,2,0,7.968,7.968,0,0,1,7.975-7.942,1,1,0,0,0,0-2Zm-4.418,1-.616.359a10.04,10.04,0,0,0-3.583,3.576l-.359.613-.359-.612a10.042,10.042,0,0,0-3.583-3.577l-.611-.359.616-.359a10.021,10.021,0,0,0,3.583-3.57l.359-.61.359.611a10.035,10.035,0,0,0,3.583,3.569Z" transform="translate(-4.84 -125.433)" fill="#c49966"/>
  <path id="Path_193" data-name="Path 193" d="M217.767,18.627a1,1,0,0,0,2,0,5.968,5.968,0,0,1,5.975-5.949,1,1,0,0,0,0-2,5.96,5.96,0,0,1-5.975-5.932,1,1,0,0,0-2,0,5.97,5.97,0,0,1-5.975,5.949,1,1,0,1,0,0,2A5.962,5.962,0,0,1,217.767,18.627ZM215.7,11.7l.517-.346a7.986,7.986,0,0,0,2.2-2.194l.345-.514.347.513a7.966,7.966,0,0,0,2.19,2.179l.517.347-.517.346a7.977,7.977,0,0,0-2.2,2.194l-.345.513-.346-.512a8,8,0,0,0-2.19-2.18Z" transform="translate(-190.545 -3.75)" fill="#c49966"/>
</svg>
