<svg xmlns="http://www.w3.org/2000/svg" width="54.674" height="50" viewBox="0 0 54.674 50"><defs><style>.a{fill:#c49966;}</style></defs><g transform="translate(-13.43 -10.76)"><path class="a" d="M53.895,438.409l.01.01a1.164,1.164,0,0,0,1.29.251,1.337,1.337,0,0,0,.379-.24l.019-.02a1.309,1.309,0,0,0,.238-.372,1.129,1.129,0,0,0,0-.908,1.336,1.336,0,0,0-.24-.379l-.018-.017a1.236,1.236,0,0,0-1.661,0l-.017.017a1.274,1.274,0,0,0-.238.374,1.123,1.123,0,0,0,0,.907A1.312,1.312,0,0,0,53.895,438.409Z" transform="translate(-35.622 -382.517)"/><path class="a" d="M399.176,438.331l.009.01a1.165,1.165,0,0,0,1.285.253,1.092,1.092,0,0,0,.645-.645,1.186,1.186,0,0,0,.092-.449,1.227,1.227,0,0,0-.337-.83l-.008-.008a1.2,1.2,0,0,0-1.276-.25.964.964,0,0,0-.225.112,1.653,1.653,0,0,0-.161.13l-.015.015a1.177,1.177,0,0,0-.244.381,1.159,1.159,0,0,0-.1.449,1.04,1.04,0,0,0,.1.465A1.332,1.332,0,0,0,399.176,438.331Z" transform="translate(-342.121 -382.438)"/><path class="a" d="M67.758,24.272h0a1.232,1.232,0,0,0-.836-.316h0a1.134,1.134,0,0,0-1.182,1.082v4.691H59.989V28.335a2.77,2.77,0,0,0-2.041-2.578l-3.95-13a2.98,2.98,0,0,0-2.872-2H38.53a2.982,2.982,0,0,0-2.878,2l-3.947,13a2.769,2.769,0,0,0-2.041,2.579v1.393h-.621a2.873,2.873,0,0,0-2.986,2.73v11.29H24.814V28.593h.621a2.008,2.008,0,0,0,2.085-1.907V19.263a2.008,2.008,0,0,0-2.085-1.9H15.516a2.006,2.006,0,0,0-2.086,1.905V48.129a1.036,1.036,0,0,0,.348.767,1.241,1.241,0,0,0,.84.315h.877l.292,2.129a4.965,4.965,0,0,0-2.075,5.82,5.667,5.667,0,0,0,5.414,3.6h0a5.668,5.668,0,0,0,5.416-3.6,4.964,4.964,0,0,0-2.072-5.821l.3-2.13H54.272l.292,2.129a4.965,4.965,0,0,0-2.075,5.82,5.667,5.667,0,0,0,5.414,3.6h0a5.668,5.668,0,0,0,5.416-3.6,4.964,4.964,0,0,0-2.072-5.821l.3-2.13h.871A1.136,1.136,0,0,0,63.6,48.129V31.892H65.74v4.691a1.191,1.191,0,0,0,2.365,0V25.037a1.027,1.027,0,0,0-.346-.765ZM61.23,55.551A3.34,3.34,0,1,1,57.9,52.509a3.193,3.193,0,0,1,3.326,3.042Zm-2.247-5.106a6.078,6.078,0,0,0-1.083-.1,5.948,5.948,0,0,0-1.08.1l-.17-1.233h2.507ZM22.448,55.551a3.194,3.194,0,0,1-3.327,3.044,3.055,3.055,0,1,1,0-6.085,3.2,3.2,0,0,1,3.327,3.042ZM20.2,50.445a6.078,6.078,0,0,0-1.083-.1,5.96,5.96,0,0,0-1.081.1l-.169-1.233h2.507ZM15.795,26.429V19.521h9.36v6.908Zm0,17.319V28.593h6.654V43.748ZM37.713,14.061l.218-.719a.623.623,0,0,1,.6-.417H51.119a.622.622,0,0,1,.6.411l.225.719ZM34.206,25.607l2.85-9.384H52.6l2.85,9.384ZM31.778,35.89l2.032,4.953a3.019,3.019,0,0,0,2.8,1.772H53.047a3.017,3.017,0,0,0,2.8-1.774l2.031-4.953a2.77,2.77,0,0,0,2.113-2.607V31.892H61.23V43.748h-32.8V32.459a.6.6,0,0,1,.62-.568h.621v1.39a2.768,2.768,0,0,0,2.108,2.607Zm.873-8.115H57a.6.6,0,0,1,.621.568v4.938a.6.6,0,0,1-.621.568H32.65a.6.6,0,0,1-.621-.568V28.336a.6.6,0,0,1,.621-.568Zm22.644,8.248-1.668,4.059a.629.629,0,0,1-.581.369H36.607a.629.629,0,0,1-.582-.369l-1.668-4.066Zm5.935,9.893v1.13H15.795v-1.13Z" transform="translate(0)"/><path class="a" d="M46.723,107.1h0a1.183,1.183,0,0,0-1.183,1.183v2.706a1.183,1.183,0,0,0,2.366,0v-2.706A1.183,1.183,0,0,0,46.723,107.1Z" transform="translate(-28.503 -86.538)"/><path class="a" d="M86.845,107.1a1.184,1.184,0,0,0-1.182,1.183v2.706a1.183,1.183,0,1,0,2.359,0v-2.706a1.183,1.183,0,0,0-1.177-1.183Z" transform="translate(-64.116 -86.54)"/></g></svg>