<svg xmlns="http://www.w3.org/2000/svg" width="50" height="50" viewBox="0 0 50 50"><defs><style>.a{fill:#c49966;}</style></defs><path class="a" d="M39.225,64.247a4.16,4.16,0,0,1-4.05-3.181l-.035-.147-12.9-5.16L22.114,56A4.167,4.167,0,1,1,17,50.2l.2-.07V34.317l-.2-.069a4.169,4.169,0,1,1,3.53-7.507l.134.08,14.7-6.8-.085-.251a4.168,4.168,0,1,1,7.886,0l-.086.251,14.7,6.8.134-.08a4.168,4.168,0,1,1,3.53,7.507l-.2.069V50.127l.2.07A4.168,4.168,0,1,1,56.333,56l-.123-.242-12.9,5.158-.036.147A4.158,4.158,0,0,1,39.225,64.247Zm0-5.952a1.784,1.784,0,1,0,1.783,1.783A1.784,1.784,0,0,0,39.225,58.294Zm4.087-18.23-.034.144a4.136,4.136,0,0,1-2.665,2.969l-.2.069V56.078l.2.07A4.17,4.17,0,0,1,42.946,58.2l.122.242,12.9-5.161.036-.147a4.161,4.161,0,0,1,2.66-2.941l.2-.07V34.317l-.2-.069a4.066,4.066,0,0,1-.771-.366l-.13-.078ZM20.553,33.883a4.232,4.232,0,0,1-.771.366l-.2.069V50.127l.2.07a4.136,4.136,0,0,1,2.658,2.943l.036.148,12.9,5.154L35.5,58.2a4.163,4.163,0,0,1,2.333-2.056l.2-.07V43.242l-.2-.069A4.141,4.141,0,0,1,35.168,40.2l-.033-.144L20.684,33.8Zm39.5,18.46a1.784,1.784,0,1,0,1.783,1.783,1.784,1.784,0,0,0-1.783-1.783Zm-41.663,0a1.784,1.784,0,1,0,1.783,1.783,1.784,1.784,0,0,0-1.783-1.783ZM39.225,37.464a1.783,1.783,0,1,0,0,3.565c1.011,0,1.783-1.265,1.783-1.783A1.785,1.785,0,0,0,39.225,37.464Zm0-2.381a4.1,4.1,0,0,1,3.7,2.248l.127.246,13.129-5.689-.085-.257a4.22,4.22,0,0,1,.012-2.663l.086-.251-14.7-6.8-.134.081a4.172,4.172,0,0,1-2.139.589h0a4.174,4.174,0,0,1-2.141-.589l-.135-.081-14.7,6.8.086.251a4.215,4.215,0,0,1,.012,2.664l-.089.256L35.39,37.577l.126-.246A4.1,4.1,0,0,1,39.225,35.083ZM18.392,28.537a1.784,1.784,0,1,0,1.732,1.773A1.786,1.786,0,0,0,18.392,28.537Zm41.753.106a2.157,2.157,0,0,0-1.351.419,1.782,1.782,0,1,0,2.521,0A1.593,1.593,0,0,0,60.145,28.643ZM39.235,16.632a1.772,1.772,0,0,0-1.8,1.783,1.8,1.8,0,0,0,1.8,1.784,1.755,1.755,0,0,0,1.246-.523,1.787,1.787,0,0,0,0-2.522A1.76,1.76,0,0,0,39.235,16.632Z" transform="translate(-14.221 -14.247)"/></svg>