<svg id="Icons-04" xmlns="http://www.w3.org/2000/svg" width="50" height="50" viewBox="0 0 50 50">
  <ellipse id="Ellipse_52" data-name="Ellipse 52" cx="1.536" cy="1.536" rx="1.536" ry="1.536" transform="translate(5.499 41.362)" fill="#c49966"/>
  <path id="Path_185" data-name="Path 185" d="M31.275,74.77a6.549,6.549,0,0,1-5.03-2.356,6.307,6.307,0,0,1-1.4-4.909,7.048,7.048,0,0,1,2.442-4.487L43.41,49.113l-7.5-7.5L29.835,39.59a1.057,1.057,0,0,1-.615-.531l-4.312-8.526a1.063,1.063,0,0,1,.2-1.237l4.212-4.212a1.066,1.066,0,0,1,1.237-.2L39.08,29.2a1.062,1.062,0,0,1,.531.616l2.027,6.08,7.919,7.919,2.273-1.961a1.9,1.9,0,0,0,.666-1.465V34.575a4.028,4.028,0,0,1,1.2-2.862l4.884-4.884a7.019,7.019,0,0,1,9.935,0,1.067,1.067,0,0,1,0,1.51l-4.21,4.212a1.912,1.912,0,0,0,2.7,2.7l4.218-4.218a1.076,1.076,0,0,1,.755-.313,1.06,1.06,0,0,1,.755.313,7.033,7.033,0,0,1,0,9.935l-4.884,4.884a4.026,4.026,0,0,1-2.862,1.185H59.176a1.907,1.907,0,0,0-1.459.676l-.817.942,14.355,10.23a8.818,8.818,0,0,1-5.283,15.873h0a8.755,8.755,0,0,1-7.043-3.5l-10.5-12.829L36.273,72.454A6.541,6.541,0,0,1,31.275,74.77ZM63.553,26.9A4.854,4.854,0,0,0,60.1,28.337l-4.884,4.884a1.912,1.912,0,0,0-.577,1.352v5.811a4.035,4.035,0,0,1-1.41,3.085q-1.215,1.047-3.291,2.84c-4.218,3.642-11.281,9.739-21.256,18.328a4.645,4.645,0,0,0-.8,6.4,4.417,4.417,0,0,0,6.771.03l21.444-24.73a4.036,4.036,0,0,1,3.086-1.409h5.811a1.909,1.909,0,0,0,1.352-.579l4.884-4.884a4.9,4.9,0,0,0,.956-5.565l-.258-.539-3.4,3.4A4.047,4.047,0,1,1,62.8,31.043l3.4-3.4-.542-.259A4.93,4.93,0,0,0,63.553,26.9ZM53.759,61.572l6.832,8.348.03.038A6.683,6.683,0,1,0,69.99,60.61l-9.683-6.9ZM49.851,56.8l2.531,3.094,6.181-7.418L55.5,50.29ZM27.162,30.261,30.927,37.7l5.9,1.965a1.073,1.073,0,0,1,.418.259l7.784,7.784,2.9-2.5-7.985-7.982a1.072,1.072,0,0,1-.258-.417l-1.968-5.9-7.442-3.764Z" transform="translate(-24.791 -24.77)" fill="#c49966"/>
</svg>
