<svg id="Icons-05" xmlns="http://www.w3.org/2000/svg" width="50.566" height="50.57" viewBox="0 0 50.566 50.57">
  <path id="Path_186" data-name="Path 186" d="M136.528,29.62A13.074,13.074,0,0,1,123.71,16.3a12.827,12.827,0,1,1,25.635,0A13.087,13.087,0,0,1,136.528,29.62Zm-2.581-7.54a21.678,21.678,0,0,0,.518,2.271c.6,2.045,1.323,3.047,1.8,3.3l.258.135.258-.135c.479-.251,1.2-1.248,1.8-3.3a21.29,21.29,0,0,0,.518-2.271l.124-.7h-5.4Zm7.045-.2a21.209,21.209,0,0,1-1.064,4.225l-.5,1.3,1.243-.532a11.239,11.239,0,0,0,5.2-4.588l.541-.909h-5.345Zm-13.822.409a11.239,11.239,0,0,0,5.2,4.588l1.243.532-.5-1.3a21.2,21.2,0,0,1-1.064-4.225l-.079-.5h-5.345Zm14.155-8.516c.055.838.083,1.691.083,2.536s-.028,1.7-.083,2.536l-.042.637h5.81l.1-.454a11.848,11.848,0,0,0,0-5.436l-.1-.454h-5.808Zm-7.76-.084c-.062.861-.093,1.743-.093,2.62s.031,1.759.093,2.621l.039.552h5.843l.039-.552c.061-.861.092-1.743.092-2.621s-.031-1.757-.092-2.62l-.039-.552H133.6Zm-7.712-.1a11.848,11.848,0,0,0,0,5.436l.1.454h5.81l-.042-.637c-.055-.837-.083-1.691-.083-2.536s.028-1.7.083-2.535l.042-.637h-5.8Zm14.077-7.078a21.266,21.266,0,0,1,1.064,4.225l.079.5h5.355l-.541-.909a11.237,11.237,0,0,0-5.2-4.587l-1.243-.532Zm-3.655-1.547c-.48.251-1.2,1.248-1.8,3.3a21.581,21.581,0,0,0-.518,2.272l-.124.7h5.41l-.124-.7a21.247,21.247,0,0,0-.518-2.272c-.6-2.045-1.323-3.046-1.8-3.3l-.258-.136Zm-3.894.775a11.237,11.237,0,0,0-5.2,4.587l-.541.909h5.352l.079-.5a21.17,21.17,0,0,1,1.064-4.225l.5-1.3Z" transform="translate(-111.244 -2.99)" fill="#c49966"/>
  <path id="Path_187" data-name="Path 187" d="M12.951,158.794a.95.95,0,0,1-.949-.949v-6.183a.95.95,0,0,1,.949-.952h1.111v-1.873l-6.041-9.794a.953.953,0,0,1-.141-.5v-17.8a.951.951,0,0,1,.949-.95H10.89a5.078,5.078,0,0,1,5.074,5.071v6.848l.837-.382a4.046,4.046,0,0,1,4.512.83l4.924,4.924a7.085,7.085,0,0,1,2.089,5.043v8.575h1.112a.95.95,0,0,1,.949.949v6.186a.95.95,0,0,1-.949.949Zm.949-1.9H28.488v-4.283H13.9ZM9.778,138.277l6.041,9.794a.947.947,0,0,1,.145.5v2.138H26.43v-8.571a5.194,5.194,0,0,0-1.533-3.7l-4.924-4.924a2.142,2.142,0,1,0-3.029,3.029l4,4a.95.95,0,0,1-1.346,1.342l-4-4a5.212,5.212,0,0,1-1.537-3.711v-9.3A3.175,3.175,0,0,0,10.89,121.7H9.778Z" transform="translate(-7.88 -108.224)" fill="#c49966"/>
  <path id="Path_188" data-name="Path 188" d="M278.819,158.794a.95.95,0,0,1-.949-.949v-6.183a.95.95,0,0,1,.949-.949h1.11v-8.574a7.085,7.085,0,0,1,2.089-5.043l4.924-4.924a4.046,4.046,0,0,1,4.514-.834l.841.378v-6.844a5.078,5.078,0,0,1,5.068-5.071h2.061a.951.951,0,0,1,.949.95v17.8a.953.953,0,0,1-.141.5l-6.042,9.794v1.868H295.3a.95.95,0,0,1,.949.949v6.186a.95.95,0,0,1-.949.949Zm.95-1.9h14.587v-4.283H279.77ZM289.8,132.887a2.129,2.129,0,0,0-1.515.627l-4.923,4.926a5.2,5.2,0,0,0-1.534,3.7v8.569H292.3v-2.142a.947.947,0,0,1,.141-.5l6.041-9.794V121.7h-1.114a3.176,3.176,0,0,0-3.173,3.172v9.3a5.212,5.212,0,0,1-1.537,3.711l-3.993,4a.949.949,0,0,1-1.343-1.342l4-4a2.142,2.142,0,0,0-1.514-3.659Z" transform="translate(-249.808 -108.224)" fill="#c49966"/>
</svg>
