<svg xmlns="http://www.w3.org/2000/svg" width="54" height="50" viewBox="0 0 54 50"><defs><style>.a{fill:#c49966;}</style></defs><g transform="translate(-12.19 -4.84)"><path class="a" d="M388.764,166.9a1.252,1.252,0,0,0-1.174,1.317v3.774a1.182,1.182,0,1,0,2.348,0v-3.774A1.252,1.252,0,0,0,388.764,166.9Z" transform="translate(-332.777 -145.495)"/><path class="a" d="M389.969,241.808a1.414,1.414,0,0,0-.341-.931,1.087,1.087,0,0,0-1.661,0,1.409,1.409,0,0,0-.341.931.1.1,0,0,0,0,.018.263.263,0,0,0,0,.032v.131a1.182,1.182,0,1,0,2.348,0v-.162Z" transform="translate(-332.809 -211.379)"/><path class="a" d="M63.035,39.111V19.627a2.989,2.989,0,0,0-2.952-3.019H51.9a2.989,2.989,0,0,0-2.952,3.019V38.818H44.939V15.046h3.228a1.187,1.187,0,0,0,1.174-1.2v-2.7H51.63v.71a1.174,1.174,0,1,0,2.347,0V8.032a1.174,1.174,0,1,0-2.347,0v.71H49.341v-2.7a1.188,1.188,0,0,0-1.174-1.2H15.3a1.188,1.188,0,0,0-1.173,1.2v7.8a1.187,1.187,0,0,0,1.173,1.2h3.227V38.818H16.968a4.84,4.84,0,0,0-4.778,4.888v9.931a1.188,1.188,0,0,0,1.174,1.2h9.1a1.187,1.187,0,0,0,1.173-1.2v-3.6H54.746v3.6a1.187,1.187,0,0,0,1.173,1.2h9.1a1.188,1.188,0,0,0,1.173-1.2V43.708A4.906,4.906,0,0,0,63.035,39.111ZM51.292,19.627a.615.615,0,0,1,.6-.621h8.186a.612.612,0,0,1,.6.621V38.818H51.3ZM16.474,12.645V7.238H46.993v5.407ZM42.6,15.076V38.818H40.244V15.076Zm-4.7-.03V38.818H25.566V15.046Zm-14.672.03V38.818H20.876V15.076ZM57.088,52.438v-3.6a1.187,1.187,0,0,0-1.173-1.2H22.461a1.187,1.187,0,0,0-1.174,1.2v3.6h-6.75v-8.73a2.461,2.461,0,0,1,2.431-2.485H61.407a2.462,2.462,0,0,1,2.431,2.485v8.73Z"/></g></svg>