<svg id="Icons-02_1_" data-name="Icons-02(1)" xmlns="http://www.w3.org/2000/svg" width="50.922" height="50" viewBox="0 0 50.922 50">
  <path id="Path_211" data-name="Path 211" d="M159.5,47.535A11.606,11.606,0,0,1,147.93,35.962c0-2.442,1.686-6.431,4.875-11.536,2.539-4.062,5.236-7.559,5.751-8.219L159.5,15l.943,1.21c.515.66,3.212,4.157,5.751,8.219,3.191,5.1,4.875,9.094,4.875,11.537A11.606,11.606,0,0,1,159.5,47.535Zm-.429-28.045a93,93,0,0,0-5.782,8.819c-1.969,3.479-2.968,6.055-2.968,7.654a9.177,9.177,0,0,0,18.354,0c0-3.417-4.713-11.01-8.749-16.473l-.426-.58Z" transform="translate(-134.04 -15)" fill="#c49966"/>
  <rect id="Rectangle_261" data-name="Rectangle 261" width="50.922" height="2.394" transform="translate(0 34.666)" fill="#c49966"/>
  <rect id="Rectangle_262" data-name="Rectangle 262" width="2.394" height="2.394" rx="1.197" transform="translate(0 40.689)" fill="#c49966"/>
  <rect id="Rectangle_263" data-name="Rectangle 263" width="2.394" height="2.394" rx="1.197" transform="translate(3.458 47.606)" fill="#c49966"/>
  <rect id="Rectangle_264" data-name="Rectangle 264" width="2.394" height="2.394" rx="1.197" transform="translate(6.915 40.689)" fill="#c49966"/>
  <rect id="Rectangle_265" data-name="Rectangle 265" width="2.394" height="2.394" rx="1.197" transform="translate(9.705 47.606)" fill="#c49966"/>
  <rect id="Rectangle_266" data-name="Rectangle 266" width="2.394" height="2.394" rx="1.197" transform="translate(12.94 40.689)" fill="#c49966"/>
  <rect id="Rectangle_267" data-name="Rectangle 267" width="2.394" height="2.394" rx="1.197" transform="translate(16.176 47.606)" fill="#c49966"/>
  <rect id="Rectangle_268" data-name="Rectangle 268" width="2.394" height="2.394" rx="1.197" transform="translate(19.41 40.689)" fill="#c49966"/>
  <rect id="Rectangle_269" data-name="Rectangle 269" width="2.394" height="2.394" rx="1.197" transform="translate(22.646 47.606)" fill="#c49966"/>
  <rect id="Rectangle_270" data-name="Rectangle 270" width="2.394" height="2.394" rx="1.197" transform="translate(25.881 40.689)" fill="#c49966"/>
  <rect id="Rectangle_271" data-name="Rectangle 271" width="2.394" height="2.394" rx="1.197" transform="translate(25.881 20.108)" fill="#c49966"/>
  <rect id="Rectangle_272" data-name="Rectangle 272" width="2.394" height="2.394" rx="1.197" transform="translate(29.117 47.606)" fill="#c49966"/>
  <rect id="Rectangle_273" data-name="Rectangle 273" width="2.394" height="2.394" rx="1.197" transform="translate(32.351 40.689)" fill="#c49966"/>
  <rect id="Rectangle_274" data-name="Rectangle 274" width="2.394" height="2.394" rx="1.197" transform="translate(35.587 47.606)" fill="#c49966"/>
  <rect id="Rectangle_275" data-name="Rectangle 275" width="2.394" height="2.394" rx="1.197" transform="translate(38.822 40.689)" fill="#c49966"/>
  <rect id="Rectangle_276" data-name="Rectangle 276" width="2.394" height="2.394" rx="1.197" transform="translate(41.612 47.606)" fill="#c49966"/>
  <rect id="Rectangle_277" data-name="Rectangle 277" width="2.394" height="2.394" rx="1.197" transform="translate(45.069 40.689)" fill="#c49966"/>
  <rect id="Rectangle_278" data-name="Rectangle 278" width="2.394" height="2.394" rx="1.197" transform="translate(48.528 47.606)" fill="#c49966"/>
  <path id="Path_212" data-name="Path 212" d="M364.936,41.593V21.1l-3.6,4.118-1.8-1.575,6.6-7.547,6.6,7.547-1.8,1.575-3.6-4.118v20.49Z" transform="translate(-323.325 -15.975)" fill="#c49966"/>
  <rect id="Rectangle_279" data-name="Rectangle 279" width="2.394" height="2.394" rx="1.197" transform="translate(41.612 27.957)" fill="#c49966"/>
  <path id="Path_213" data-name="Path 213" d="M29.386,41.593V21.1l-3.6,4.118-1.8-1.575,6.6-7.547,6.6,7.547-1.8,1.575-3.6-4.118v20.49Z" transform="translate(-22.47 -15.975)" fill="#c49966"/>
  <rect id="Rectangle_280" data-name="Rectangle 280" width="2.394" height="2.394" rx="1.197" transform="translate(6.915 27.957)" fill="#c49966"/>
</svg>
