<svg xmlns="http://www.w3.org/2000/svg" width="48.858" height="50" viewBox="0 0 48.858 50"><defs><style>.a{fill:#c49966;}</style></defs><path class="a" d="M12.592,54a1.024,1.024,0,0,1-.952-1.082V49.736c0-4.105,3.052-7.446,6.8-7.446h1.971V37.982H18.436a1.024,1.024,0,0,1-.952-1.082V24.175a7.337,7.337,0,0,1,5.446-7.3l.4-.089V11.436c0-4.1,3.044-7.436,6.787-7.436h5.858c3.746,0,6.794,3.339,6.794,7.443V19.91H59.546a1.025,1.025,0,0,1,.952,1.083v6.364a1.024,1.024,0,0,1-.952,1.082H54.459v5.036a4.667,4.667,0,0,1-1.993,3.91,3.876,3.876,0,0,1-2.167.678,4.225,4.225,0,0,1-3.958-3.126l-.478-1.572-8.938,1.769V36.9a1.024,1.024,0,0,1-.952,1.082H34v4.306h1.971c3.747,0,6.8,3.34,6.8,7.446v3.182A1.025,1.025,0,0,1,41.816,54Zm5.844-9.546a5.1,5.1,0,0,0-4.892,5.282v2.1H40.864v-2.1a5.1,5.1,0,0,0-4.892-5.282Zm3.875-2.164H32.1V37.982H22.312ZM46.493,31.058a.968.968,0,0,1,.9.727l.747,2.442A2.281,2.281,0,0,0,50.293,35.9a2.156,2.156,0,0,0,1.2-.376,2.416,2.416,0,0,0,1.057-2.047v-11.4H42.77v2.1a4.089,4.089,0,0,1-3.875,4.264,3.537,3.537,0,0,1-1.273-.243l-.692-.268v5l9.405-1.863A.893.893,0,0,1,46.493,31.058ZM19.39,35.82H35.019V18.893H24.282a4.947,4.947,0,0,0-4.616,3.534l-.217.666H30.132a1.024,1.024,0,0,1,.952,1.082v6.364a1.025,1.025,0,0,1-.952,1.083H19.39Zm0-6.364h9.787v-4.2H19.39Zm35.069-3.182h4.135v-4.2H54.459ZM35.972,10.365a1.025,1.025,0,0,1,.952,1.083V24.175a1.974,1.974,0,1,0,3.94,0V11.444a5.1,5.1,0,0,0-4.889-5.277H30.117a5.1,5.1,0,0,0-4.884,5.27v5.291h3.944V11.448a1.025,1.025,0,0,1,.952-1.083Zm-4.893,6.364h3.94v-4.2h-3.94Z" transform="translate(-11.64 -4)"/></svg>