<svg id="Icons-07" xmlns="http://www.w3.org/2000/svg" width="47.078" height="50" viewBox="0 0 47.078 50">
  <path id="Path_189" data-name="Path 189" d="M84.478,54.995h-.2a1.206,1.206,0,0,1-1.282-1.114V30.592l-.224-.015a22.828,22.828,0,0,1-12.2-4.533,24.385,24.385,0,0,1-8.4-11.555,1,1,0,0,1,.274-1.1,1.41,1.41,0,0,1,1.246-.326,1.214,1.214,0,0,1,.932.787c3.034,8.707,10.934,14.563,19.66,14.563,11.079,0,20.268-9.212,20.922-20.971l.012-.22H82.541l3.082,7.427,4.432-3.172a1.409,1.409,0,0,1,.816-.254,1.5,1.5,0,0,1,.328.037,1.236,1.236,0,0,1,.869.68L96,20.952a1.072,1.072,0,0,1-.745,1.431,1.347,1.347,0,0,1-1.651-.646l-3.3-7.568L85.85,17.36a1.433,1.433,0,0,1-1.154.215,1.225,1.225,0,0,1-.866-.7L79.821,7.214H62.035a1.336,1.336,0,0,1-1.142-.545.984.984,0,0,1,0-1.13A1.336,1.336,0,0,1,62.035,5h44.478a1.2,1.2,0,0,1,1.28,1.11c0,12.9-9.67,23.652-22.015,24.468l-.223.016V52.775h9.251a1.121,1.121,0,1,1,0,2.22Z" transform="translate(-60.715 -4.995)" fill="#c49966"/>
  <path id="Path_190" data-name="Path 190" d="M159.021,463.022a1.281,1.281,0,1,1,0-2.562h4.843a1.281,1.281,0,1,1,0,2.562Z" transform="translate(-145.993 -413.022)" fill="#c49966"/>
</svg>
