<svg xmlns="http://www.w3.org/2000/svg" width="47.45" height="50" viewBox="0 0 47.45 50"><defs><style>.a{fill:#c49966;}</style></defs><path class="a" d="M12.92,308.425V286.52h9.606v6.566H50.766V286.52h9.6v21.905ZM50.4,306.217h7.932v-4.358H52.417Zm-9.082,0h6.806l2.006-4.358h-6.8Zm-9.083,0h6.806l2.006-4.358h-6.8Zm-9.083,0h6.806l2.006-4.358h-6.8Zm-8.2,0h5.923l2.006-4.358H14.956Zm0-6.566H58.335V288.728H52.8v6.566H20.49v-6.566H14.956Z" transform="translate(-12.92 -258.425)"/><path class="a" d="M26.545,46.6V40.038H12.92V31.264H29.578v-7.64H26.545V14.85h20.2v8.774H43.72v7.64H60.37v8.775H46.747V46.6ZM28.581,44.4h16.13V40.038H28.581ZM50.4,37.831h7.932V33.472H52.417Zm-9.082,0h6.806l2.006-4.359h-6.8Zm-9.083,0h6.806l2.006-4.359h-6.8Zm-9.083,0h6.806l2.006-4.359h-6.8Zm-8.2,0h5.923l2.006-4.359H14.956Zm16.65-6.567H41.683v-7.64H31.609Zm-3.025-9.848h16.13V17.057H28.581Z" transform="translate(-12.92 -14.85)"/></svg>