<svg xmlns="http://www.w3.org/2000/svg" width="51.392" height="50.113" viewBox="0 0 51.392 50.113"><defs><style>.a{fill:#c49966;stroke:#c49966;stroke-miterlimit:10;stroke-width:0.5px;}</style></defs><g transform="translate(0.25 0.25)"><path class="a" d="M184.367,36.347a2.393,2.393,0,0,0-2.647-.571,2.421,2.421,0,0,0-3.584-1.563,2.614,2.614,0,0,0-.336-.435,2.4,2.4,0,0,0-2.565-.6V31.314h5.746a.838.838,0,0,0,.821-.856v-13.7a.839.839,0,0,0-.821-.857H167.848a.839.839,0,0,0-.821.857v13.7a.838.838,0,0,0,.821.856h2.462v7.351c-.007-.013-.013-.028-.022-.04a2.408,2.408,0,0,0-3.361-.952,2.631,2.631,0,0,0-.912,3.507l4.407,8.583a.869.869,0,0,0,.153.211l1.389,1.4-.012,13.283a.839.839,0,0,0,.821.858h9.85a.839.839,0,0,0,.821-.857V51.363l1.4-1.461a.874.874,0,0,0,.24-.605V38.165A2.609,2.609,0,0,0,184.367,36.347Zm-15.7-6.745V17.613H180.16V29.6h-4.925v-.857a2.465,2.465,0,1,0-4.925,0V29.6Zm14.775,19.341-1.4,1.461a.879.879,0,0,0-.24.606V63.8H173.6l.011-12.79a.877.877,0,0,0-.25-.616l-1.546-1.56-4.346-8.475-.012-.023a.881.881,0,0,1,.3-1.173.779.779,0,0,1,.41-.114.815.815,0,0,1,.7.41l1.539,3.208a.806.806,0,0,0,1.1.382.862.862,0,0,0,.452-.764V28.744a.821.821,0,1,1,1.642,0V39.876a.821.821,0,0,0,1.642,0V35.6a.821.821,0,1,1,1.642,0v4.284a.821.821,0,0,0,1.642,0V36.452a.821.821,0,0,1,1.642,0v3.427a.821.821,0,1,0,1.642,0V38.165a.821.821,0,0,1,1.642,0V48.942Z" transform="translate(-148.972 -15.9)"/><path class="a" d="M16.712,15.9H3.579a.839.839,0,0,0-.821.857v13.7a.838.838,0,0,0,.821.856H16.712a.838.838,0,0,0,.821-.856v-13.7A.839.839,0,0,0,16.712,15.9Zm-.821,13.7H4.4V17.613H15.891Z" transform="translate(-2.758 -15.9)"/><path class="a" d="M368.712,15.9H355.579a.839.839,0,0,0-.821.857v13.7a.838.838,0,0,0,.821.856h13.133a.838.838,0,0,0,.821-.856v-13.7A.839.839,0,0,0,368.712,15.9Zm-.821,13.7H356.4V17.613h11.491Z" transform="translate(-318.642 -15.9)"/></g></svg>