<svg xmlns="http://www.w3.org/2000/svg" width="50" height="50" viewBox="0 0 50 50"><defs><style>.a{fill:#c49966;}</style></defs><path class="a" d="M33,58a1.25,1.25,0,0,1-1.249-1.249V54.575l-.413-.032A21.644,21.644,0,0,1,11.457,34.662l-.032-.413H9.249a1.249,1.249,0,0,1,0-2.5h2.176l.032-.413A21.644,21.644,0,0,1,31.338,11.457l.413-.032V9.249a1.249,1.249,0,1,1,2.5,0v2.176l.413.032A21.644,21.644,0,0,1,54.543,31.338l.032.413h2.176a1.249,1.249,0,1,1,0,2.5H54.575l-.032.413A21.644,21.644,0,0,1,34.662,54.543l-.413.032v2.176A1.25,1.25,0,0,1,33,58Zm7.873-23.393a8.019,8.019,0,0,1-6.265,6.265l-.358.073V52.073l.488-.044A19.137,19.137,0,0,0,52.029,34.737l.044-.488H40.946Zm-26.9.129A19.139,19.139,0,0,0,31.263,52.029l.488.044V40.946l-.358-.073a8.017,8.017,0,0,1-6.265-6.265l-.073-.358H13.926Zm20.279,3.7.6-.212a5.6,5.6,0,0,0,3.374-3.374l.212-.6H34.249ZM27.78,34.846a5.6,5.6,0,0,0,3.374,3.374l.6.212V34.249H27.568Zm6.469-9.792.358.073a8.017,8.017,0,0,1,6.265,6.265l.073.358H52.073l-.044-.488A19.137,19.137,0,0,0,34.737,13.971l-.488-.044ZM31.263,13.971A19.137,19.137,0,0,0,13.971,31.263l-.044.488H25.054l.073-.358a8.019,8.019,0,0,1,6.265-6.265l.358-.073V13.927Zm2.986,17.78h4.183l-.212-.6a5.6,5.6,0,0,0-3.374-3.374l-.6-.212Zm-3.1-3.971a5.6,5.6,0,0,0-3.374,3.374l-.212.6h4.183V27.568Z" transform="translate(-8 -8)"/></svg>