<svg xmlns="http://www.w3.org/2000/svg" width="50.259" height="50" viewBox="0 0 50.259 50"><defs><style>.a{fill:#c49966;}</style></defs><path class="a" d="M49.2,18.343H17.372V16.807a1.95,1.95,0,0,0,1.561-2.035V10.257H32.812a2.779,2.779,0,0,0,2.5-2.983,2.779,2.779,0,0,0-2.5-2.984H8.626c-2.238,0-4.065,2.179-4.065,4.857v5.621A1.943,1.943,0,0,0,6.121,16.8v1.54A3.7,3.7,0,0,0,3,22.26V53.18a1.039,1.039,0,0,0,.944,1.11H17.985a1.038,1.038,0,0,0,.944-1.11V32.569c0-2.488,1.677-4.511,3.737-4.511H42.008v1.7a1.908,1.908,0,0,0,1.725,2.047h6.242A1.907,1.907,0,0,0,51.7,29.758V28.049a1.95,1.95,0,0,0,1.561-2.035V23.2C53.263,20.522,51.439,18.343,49.2,18.343ZM6.449,9.144A2.443,2.443,0,0,1,8.626,6.507H32.812a.7.7,0,0,1,.617.764.7.7,0,0,1-.617.763H17.988a1.044,1.044,0,0,0-.947,1.11v5.447H14.868a1.125,1.125,0,0,0,0,2.221h.61v1.526H8.009V16.813H11.75a1.123,1.123,0,0,0,0-2.218h-5.3ZM47.637,25.831a1.125,1.125,0,0,0,0,2.22h2.176v1.526H43.9V28.051h.61a1.124,1.124,0,0,0,0-2.22H22.67c-3.1,0-5.626,3.02-5.626,6.732V52.069H4.888V22.263a1.573,1.573,0,0,1,1.4-1.7H49.2A2.444,2.444,0,0,1,51.374,23.2v2.637Z" transform="translate(-3 -4.29)"/><path class="a" d="M45.495,35.525a.774.774,0,0,0-.793.783l-.15,1.854a.843.843,0,0,0,.652.952h.072A.792.792,0,0,0,46,38.326l.15-1.853A.842.842,0,0,0,45.495,35.525Zm3.037,16.763a.805.805,0,0,0-.726.871v1.863a.738.738,0,1,0,1.453,0V53.159a.812.812,0,0,0-.733-.871Zm0-5.589a.806.806,0,0,0-.726.872v1.862a.738.738,0,1,0,1.453,0V47.57a.813.813,0,0,0-.733-.872Zm-3.484-5.611a.772.772,0,0,0-.794.783l-.15,1.854a.845.845,0,0,0,.653.952h.071a.793.793,0,0,0,.723-.788l.15-1.854a.845.845,0,0,0-.655-.947Zm-.45,5.564a.774.774,0,0,0-.793.783l-.15,1.854a.844.844,0,0,0,.653.952h.071a.792.792,0,0,0,.722-.788l.15-1.854a.844.844,0,0,0-.655-.948Zm6.262-26.036H18.982V18.633h.05a1.676,1.676,0,0,0,1.5-1.8V12.113H34.556a2.54,2.54,0,0,0,2.279-2.731A2.54,2.54,0,0,0,34.556,6.65H10.493c-2.113-.006-3.831,2.059-3.831,4.588v5.589a1.675,1.675,0,0,0,1.5,1.8h.051v1.983H8.164c-1.684,0-3.054,1.652-3.054,3.669v30.74a.808.808,0,0,0,.726.871H19.805a.806.806,0,0,0,.727-.871V34.529c0-2.6,1.763-4.717,3.931-4.717h19.46v1.922a1.675,1.675,0,0,0,1.5,1.8h6.21a1.676,1.676,0,0,0,1.5-1.8V29.812h.05a1.675,1.675,0,0,0,1.5-1.8V25.214C54.689,22.679,52.971,20.616,50.859,20.616ZM8.164,16.89a.055.055,0,0,1-.05-.06V11.238a2.652,2.652,0,0,1,2.379-2.854H34.556a.921.921,0,0,1,.826.991.921.921,0,0,1-.826.991H19.808a.805.805,0,0,0-.726.871v5.589a.056.056,0,0,1-.051.06H16.7a.886.886,0,0,0,0,1.743h.826v1.983H9.667v-1.98H13.6a.886.886,0,0,0,0-1.743ZM53.187,28.068H49.306a.886.886,0,0,0,0,1.743h2.379v1.922a.056.056,0,0,1-.05.061h-6.21a.057.057,0,0,1-.051-.061V29.811H46.2a.886.886,0,0,0,0-1.743H24.466c-2.968,0-5.383,2.9-5.383,6.461V54.155H6.562V24.282a1.787,1.787,0,0,1,1.6-1.922H50.859a2.653,2.653,0,0,1,2.378,2.855v2.794h0A.056.056,0,0,1,53.187,28.068ZM44.145,52.21a.771.771,0,0,0-.793.784l-.15,1.854a.842.842,0,0,0,.653.951.556.556,0,0,0,.071,0,.792.792,0,0,0,.722-.787l.15-1.854A.845.845,0,0,0,44.145,52.21Zm8.6-1.974a.839.839,0,0,0,.653-.951l-.15-1.854a.775.775,0,0,0-.793-.784.844.844,0,0,0-.653.952l.15,1.854a.792.792,0,0,0,.722.787.416.416,0,0,0,.075,0ZM52.3,44.672a.844.844,0,0,0,.653-.952l-.146-1.849a.774.774,0,0,0-.793-.783.843.843,0,0,0-.653.951l.15,1.854a.792.792,0,0,0,.722.788c.023,0,.048,0,.071,0Zm1.4,8.32a.776.776,0,0,0-.793-.784.844.844,0,0,0-.653.952l.15,1.854a.792.792,0,0,0,.722.787.572.572,0,0,0,.072,0,.843.843,0,0,0,.652-.952ZM51.855,39.114a.844.844,0,0,0,.653-.952l-.15-1.854a.776.776,0,0,0-.794-.783.843.843,0,0,0-.653.951l.151,1.854a.791.791,0,0,0,.722.788C51.807,39.118,51.83,39.116,51.855,39.114Zm-3.329,2a.805.805,0,0,0-.726.871v1.863a.738.738,0,1,0,1.453,0V41.981A.8.8,0,0,0,48.525,41.11Zm0-5.592a.805.805,0,0,0-.726.871v1.863a.738.738,0,1,0,1.453,0v-1.86A.806.806,0,0,0,48.525,35.517Z" transform="translate(-4.767 -6.267)"/></svg>