<svg xmlns="http://www.w3.org/2000/svg" width="49.405" height="50.508" viewBox="0 0 49.405 50.508"><defs><style>.a{fill:#c49966;stroke:#c49966;stroke-miterlimit:10;stroke-width:0.5px;}</style></defs><g transform="translate(0.27 0.258)"><g transform="translate(0 0)"><path class="a" d="M18.51,14.605H15.02a2.562,2.562,0,0,0-2.618,2.5v2.5H4.549A2.583,2.583,0,0,0,1.966,21.7a2.473,2.473,0,0,0,1.747,2.76C4.1,32,10.608,37.924,18.51,37.936h2.618v2.5a2.511,2.511,0,0,0,1.746,2.346v5.153a3.494,3.494,0,0,0,6.981,0V42.782A2.51,2.51,0,0,0,31.6,40.436v-2.5h2.618c7.9-.012,14.41-5.937,14.8-13.474a2.486,2.486,0,0,0,1.748-2.768A2.579,2.579,0,0,0,48.179,19.6H40.326V17.1a2.565,2.565,0,0,0-2.618-2.5H34.217A2.562,2.562,0,0,0,31.6,17.1v2.5H28.977V7.94A6.545,6.545,0,0,0,26.6,2.932a7.21,7.21,0,0,0-5.514-1.6,6.889,6.889,0,0,0-6.066,6.81v.63a1.707,1.707,0,0,0,1.746,1.666h1.745A1.707,1.707,0,0,0,20.252,8.77V7.94a1.641,1.641,0,0,1,.643-1.294,1.8,1.8,0,0,1,1.457-.339,1.757,1.757,0,0,1,1.39,1.732V19.6H21.128V17.1A2.56,2.56,0,0,0,18.51,14.605Zm-4.362,2.5a.854.854,0,0,1,.872-.833h3.49a.854.854,0,0,1,.873.833v2.5H14.148ZM28.109,47.935a1.747,1.747,0,0,1-3.49,0v-5h3.49Zm1.746-7.5a.853.853,0,0,1-.873.833H23.746a.853.853,0,0,1-.872-.833v-2.5h6.981Zm4.362-4.166H18.51A12.874,12.874,0,0,1,5.45,24.6H47.278A12.871,12.871,0,0,1,34.217,36.27ZM49.051,22.1a.853.853,0,0,1-.872.833H4.549a.834.834,0,1,1,0-1.666h43.63a.854.854,0,0,1,.872.833Zm-15.707-5a.854.854,0,0,1,.872-.833h3.491a.854.854,0,0,1,.872.833v2.5H33.344ZM22.689,4.671a3.611,3.611,0,0,0-2.9.689,3.279,3.279,0,0,0-1.279,2.58v.833H16.765v-.63a5.189,5.189,0,0,1,4.543-5.16,5.408,5.408,0,0,1,4.139,1.2,4.913,4.913,0,0,1,1.79,3.76V19.6H25.491V8.038A3.424,3.424,0,0,0,22.689,4.671Z" transform="translate(-1.931 -1.272)"/></g></g></svg>