<svg xmlns="http://www.w3.org/2000/svg" width="1037.459" height="397.285" viewBox="0 0 1037.459 397.285">
  <g id="Group_3662" data-name="Group 3662" transform="translate(-200 -2080.397)">
    <text id="_3250_mm" data-name="3250 mm" transform="translate(649.654 2102.397)" fill="#6c6c6c" font-size="21" font-family="Poppins-SemiBold, Poppins" font-weight="600"><tspan x="0" y="0">3250 mm</tspan></text>
    <text id="_1670_mm" data-name="1670 mm" transform="translate(200 2314.685)" fill="#6c6c6c" font-size="21" font-family="Poppins-SemiBold, Poppins" font-weight="600"><tspan x="0" y="0">1670 mm</tspan></text>
    <rect id="Rectangle_316" data-name="Rectangle 316" width="744.581" height="303.406" transform="translate(326.233 2159.598)" fill="#f8f8f8" stroke="#6c6c6c" stroke-width="2"/>
    <g id="Group_3660" data-name="Group 3660" transform="translate(326.233 2095.17)">
      <line id="Line_30" data-name="Line 30" x2="273.456" fill="none" stroke="#6c6c6c" stroke-width="2"/>
      <line id="Line_31" data-name="Line 31" x2="273.456" transform="translate(471.125)" fill="none" stroke="#6c6c6c" stroke-width="2"/>
    </g>
    <path id="Path_299" data-name="Path 299" d="M1466.27,993.6l.991-.555-.877-.629C1466.344,992.816,1466.309,993.2,1466.27,993.6Z" transform="translate(-742.817 1333.608)" fill="#d7d6d6"/>
    <path id="Path_300" data-name="Path 300" d="M1252.534,908.41l.5-1.09-1.14.035C1252.088,907.706,1252.311,908.063,1252.534,908.41Z" transform="translate(-634.635 1376.552)" fill="#d7d6d6"/>
    <path id="Path_301" data-name="Path 301" d="M1129.524,753.37l-.614,4.562,6.1-1.882Z" transform="translate(-572.576 1454.24)" fill="#a5a5a5"/>
    <path id="Path_303" data-name="Path 303" d="M1142.97,657.943l-.753-1.293-.827.827Z" transform="translate(-578.873 1503.047)" fill="#f3f3f3"/>
    <path id="Path_304" data-name="Path 304" d="M1604.788,823.64l-4.008,4.751,4.389,2.086Q1604.976,827.043,1604.788,823.64Z" transform="translate(-810.694 1418.78)" fill="#f3f3f3"/>
    <path id="Path_305" data-name="Path 305" d="M1738.06,734.8l-2.621-2.918-1.689,2.561Z" transform="translate(-877.794 1465.084)" fill="#f3f3f3"/>
    <path id="Path_306" data-name="Path 306" d="M1189.668,1168.724l5.583-8.828-9.59-2.526C1187,1161.175,1188.345,1164.969,1189.668,1168.724Z" transform="translate(-601.213 1250.371)" fill="#ececec"/>
    <path id="Path_309" data-name="Path 309" d="M1763.863,1222.675l-1.526-9.155-8.288,4.711Z" transform="translate(-888.038 1222.036)" fill="#ececec"/>
    <path id="Path_310" data-name="Path 310" d="M847.79,908.779l2.4,1.545c.084-.738.164-1.486.243-2.2Z" transform="translate(-430.715 1376.148)" fill="#ececec"/>
    <path id="Path_311" data-name="Path 311" d="M1822.172,782.68l-.332,2.442,1.808-.614Z" transform="translate(-922.247 1439.449)" fill="#ececec"/>
    <path id="Path_313" data-name="Path 313" d="M1588.887,1216.292c.144-.307.277-.609.416-.911h-.723C1588.684,1215.687,1588.788,1215.994,1588.887,1216.292Z" transform="translate(-804.537 1221.097)" fill="#ececec"/>
    <path id="Path_314" data-name="Path 314" d="M827.1,1135.757l-1.917-.287.3,1.432Z" transform="translate(-419.306 1261.422)" fill="#a5a5a5"/>
    <path id="Path_315" data-name="Path 315" d="M1824.344,1247.131l-3.656-3.1-1.229,3.393Z" transform="translate(-921.045 1206.64)" fill="#a5a5a5"/>
    <path id="Path_316" data-name="Path 316" d="M705.123,1257.2l-5.91-7.733-5.563,9.927Z" transform="translate(-353.162 1199.62)" fill="#d3d3d3"/>
    <path id="Path_317" data-name="Path 317" d="M1695.88,968.8l2.368,5.885,5.221-5.271Z" transform="translate(-858.684 1345.528)" fill="#e3e3e3"/>
    <path id="Path_319" data-name="Path 319" d="M703.446,762.808v-.188h0C703.421,762.665,703.436,762.724,703.446,762.808Z" transform="translate(-357.869 1449.572)" fill="#ececec"/>
    <path id="Path_321" data-name="Path 321" d="M1374.927,1203.12l5.984-7.733-5.925-7.267-2.576.713-5.291,8.694,4.166,6.2Z" transform="translate(-692.783 1234.853)" fill="#e5e5e5"/>
    <path id="Path_323" data-name="Path 323" d="M1843.614,928.25l3.794,1.486,2.214-3.215-.589-.946-4.092-1.095-1.981,2.393Z" transform="translate(-932.904 1367.893)" fill="#e5e5e5"/>
    <path id="Path_324" data-name="Path 324" d="M1841.73,717.726l.292.926,7.767,5.568,13.132-10.358-8.248-4.612Z" transform="translate(-932.283 1476.504)" fill="#d7d6d6"/>
    <path id="Path_326" data-name="Path 326" d="M1457.74,1123.289l9.952-2.279-2.477-3.18-6.7,1.486Z" transform="translate(-738.512 1270.323)" fill="#e3e3e3"/>
    <path id="Path_327" data-name="Path 327" d="M1649.531,850l-8.421,5.945,3.517,2.016L1650.3,854Z" transform="translate(-831.046 1405.478)" fill="#e3e3e3"/>
    <path id="Path_328" data-name="Path 328" d="M1071.63,724.928l1.892-.793-.594-.545-1.278.5Z" transform="translate(-543.671 1469.267)" fill="#e3e3e3"/>
    <path id="Path_330" data-name="Path 330" d="M807.919,983.9l1.793-2.323-2.972.5Z" transform="translate(-410 1339.079)" fill="#a5a5a5"/>
    <path id="Path_332" data-name="Path 332" d="M1531.794,1238.064l4.27-11.394-14.643,1.813-.391,1.754Z" transform="translate(-770.45 1215.4)" fill="#ececec"/>
    <path id="Path_334" data-name="Path 334" d="M1629.533,678.815l1.982-6.157-1.045-.267-2.789,6.569Z" transform="translate(-824.268 1495.104)" fill="#e5e5e5"/>
    <path id="Path_335" data-name="Path 335" d="M674.33,796.422l4.513,4.057,7.619-8.288-4.6-1.952Z" transform="translate(-343.183 1435.634)" fill="#e5e5e5"/>
    <path id="Path_336" data-name="Path 336" d="M1355.618,901.288l7.525-3.349-6.049-14.039-4.953,4.622Z" transform="translate(-685.224 1388.371)" fill="#e5e5e5"/>
    <path id="Path_337" data-name="Path 337" d="M1123.194,809.62l-5.944.857,1.486,11.052,4.409-2.254Z" transform="translate(-566.692 1425.854)" fill="#e5e5e5"/>
    <path id="Path_338" data-name="Path 338" d="M1206.868,1055.916l-.931-2.046-.936,2.046Z" transform="translate(-610.973 1302.6)" fill="#a5a5a5"/>
    <path id="Path_339" data-name="Path 339" d="M1824.92,1165.93q1.253,3.121,2.507,6.252l3.052-5.945Z" transform="translate(-923.801 1246.051)" fill="#a5a5a5"/>
    <path id="Path_340" data-name="Path 340" d="M1102.885,693.505l-2.655-1.055.931,2.675Z" transform="translate(-558.103 1484.981)" fill="#a5a5a5"/>
    <path id="Path_341" data-name="Path 341" d="M767.65,1125.752l.827.332-.025-.634Z" transform="translate(-390.274 1266.478)" fill="#a5a5a5"/>
    <path id="Path_342" data-name="Path 342" d="M1492.988,663.6l-1.318.619.788.674Z" transform="translate(-755.634 1499.54)" fill="#a5a5a5"/>
    <path id="Path_343" data-name="Path 343" d="M1233.355,738.829l-.946-.609-.119.8Z" transform="translate(-624.744 1461.885)" fill="#a5a5a5"/>
    <path id="Path_344" data-name="Path 344" d="M1876.445,1008.631l16.055-4.458q.887-7.649,1.759-15.119l-7.059-7.664-5.493,1.179-5.806,25.314A5.345,5.345,0,0,0,1876.445,1008.631Z" transform="translate(-949.527 1339.175)" fill="#a5a5a5"/>
    <path id="Path_345" data-name="Path 345" d="M1776.15,878.831l10.9,10.472,12.612-5.637q1.367-4.553,2.71-9.055l-3.468-3.74-22.445,7.2Z" transform="translate(-899.19 1394.946)" fill="#a5a5a5"/>
    <path id="Path_346" data-name="Path 346" d="M1544.37,821.714l3.379.5,1.59-2.69-.684-2.021-1.129-.238-3.195,4.26C1544.345,821.59,1544.355,821.654,1544.37,821.714Z" transform="translate(-782.208 1421.999)" fill="#a5a5a5"/>
    <path id="Path_347" data-name="Path 347" d="M1289.85,1151.436l11.547,6.717q.7-7.753,1.441-15.753Z" transform="translate(-653.79 1257.925)" fill="#e5e5e5"/>
    <path id="Path_348" data-name="Path 348" d="M1202.39,1230.432l4.151,1.947v-5.449Z" transform="translate(-609.656 1215.269)" fill="#e5e5e5"/>
    <path id="Path_349" data-name="Path 349" d="M884.644,773.29l-8.084,9.467,14.2,3.963Z" transform="translate(-445.233 1444.188)" fill="#e5e5e5"/>
    <path id="Path_351" data-name="Path 351" d="M1000.73,1253.331l1.486.238c-.233-.589-.466-1.184-.7-1.778Z" transform="translate(-507.893 1202.724)" fill="#d8d9d8"/>
    <path id="Path_352" data-name="Path 352" d="M1660.147,1108.3l-4.255-6.262-5.132.129,4.6,13.316,2.541-.129Z" transform="translate(-835.915 1278.292)" fill="#d7d6d6"/>
    <path id="Path_353" data-name="Path 353" d="M1030.854,1017.235l5.112,2.432,3.265-2.026-8-6.851-1.59,1.045Z" transform="translate(-522.481 1324.339)" fill="#d7d6d6"/>
    <path id="Path_354" data-name="Path 354" d="M1859.747,831.55,1846,834.81c-1.085,3.091-2.15,6.118-3.185,9.036l26.279.837,1.461-4.523Z" transform="translate(-932.829 1414.788)" fill="#d7d6d6"/>
    <path id="Path_355" data-name="Path 355" d="M926.588,707.217l.168-2.947-1.947,2.318Z" transform="translate(-469.581 1479.017)" fill="#a5a5a5"/>
    <path id="Path_356" data-name="Path 356" d="M1415.924,986.849l-.342-.148-1.942.827.168,2.715,1.838.56.183-.069Z" transform="translate(-716.258 1336.495)" fill="#a5a5a5"/>
    <path id="Path_357" data-name="Path 357" d="M951.251,1193.931l-.758-.431-4.721,1.387-.352,6.321,4.092,1.8.446-.1Z" transform="translate(-479.982 1232.138)" fill="#a5a5a5"/>
    <path id="Path_358" data-name="Path 358" d="M1167.191,1005.76l-.441.832q.822,2.526,1.645,5.048l6.826.168,1.808-4.458-.124-.5Z" transform="translate(-591.671 1326.877)" fill="#a5a5a5"/>
    <path id="Path_359" data-name="Path 359" d="M1425.835,1044.67l-4.275.193,3.661,3.081Z" transform="translate(-720.255 1307.242)" fill="#d7d6d6"/>
    <path id="Path_360" data-name="Path 360" d="M1136.3,925.16l-.857,2.105,2.3-1.085Z" transform="translate(-575.871 1367.55)" fill="#d7d6d6"/>
    <path id="Path_361" data-name="Path 361" d="M1597.535,1160.62l-1.645,1.471,2.467.035Z" transform="translate(-808.226 1248.73)" fill="#d7d6d6"/>
    <path id="Path_362" data-name="Path 362" d="M963.846,812.848l4.231-4.835c-.763-1.323-1.531-2.645-2.289-3.963l-5.761.619-2.477,3.587,1.63,3.705Z" transform="translate(-486.103 1428.665)" fill="#d7d6d6"/>
    <path id="Path_364" data-name="Path 364" d="M858,852.966l1.229,3.428,2.586-.044,1.278-3.027c-.362-.738-.723-1.486-1.09-2.219l-2.279-.213Z" transform="translate(-435.867 1405.028)" fill="#d7d6d6"/>
    <path id="Path_366" data-name="Path 366" d="M692.754,859.151l-8.283-8.471-10.051,3.1.144,13.8,12.553,6.935,4.488-1.1Z" transform="translate(-343.228 1405.134)" fill="#d7d6d6"/>
    <path id="Path_367" data-name="Path 367" d="M1320.11,1040.19l-4.671,2.234c-.045,1.536-.084,3.066-.129,4.6l5.727,1.882,4.632-4.221.178-2.011Z" transform="translate(-666.638 1309.502)" fill="#d7d6d6"/>
    <path id="Path_369" data-name="Path 369" d="M1193.525,1107.6l3.418.9c-.3-1.853-.6-3.725-.9-5.593l-3.032,1.6Z" transform="translate(-604.922 1277.853)" fill="#d7d6d6"/>
    <path id="Path_370" data-name="Path 370" d="M1021.809,884.979l-.659,11.339,6.92-2.546-5.85-8.882Z" transform="translate(-518.197 1387.871)" fill="#ececec"/>
    <path id="Path_372" data-name="Path 372" d="M831.4,786.63l.317.188.064-.228Z" transform="translate(-422.444 1437.476)" fill="#d7d6d6"/>
    <path id="Path_373" data-name="Path 373" d="M800.068,666.54l-.2.139.119.1Z" transform="translate(-406.533 1498.056)" fill="#d7d6d6"/>
    <path id="Path_374" data-name="Path 374" d="M1613.43,1258.289l3.849-2.591-.991-.748q-1.337.887-2.69,1.788Z" transform="translate(-817.077 1201.129)" fill="#a5a5a5"/>
    <path id="Path_375" data-name="Path 375" d="M1228.77,795.47l3.25,18.641,12.914-7.777-2.611-8.085Z" transform="translate(-622.968 1432.995)" fill="#f3f3f3"/>
    <path id="Path_376" data-name="Path 376" d="M667.72,1068.48l9.858,1.342-1.838-7.713-4.468.02Z" transform="translate(-339.847 1298.441)" fill="#f3f3f3"/>
    <path id="Path_378" data-name="Path 378" d="M1177,829.544l2.66,2.358,1.1-3.512Z" transform="translate(-596.843 1416.382)" fill="#ececec"/>
    <path id="Path_379" data-name="Path 379" d="M1607.025,1088.661c-.426-.5-.857-1.031-1.288-1.541l-.907,1.868Z" transform="translate(-812.738 1285.821)" fill="#ececec"/>
    <path id="Path_380" data-name="Path 380" d="M1436.73,1183.484l.139,1.3,1.12-.238c-.054-.56-.109-1.129-.168-1.7Z" transform="translate(-727.91 1237.513)" fill="#ececec"/>
    <path id="Path_381" data-name="Path 381" d="M1208.152,671.436l.139-.882-.778-.045-.193,1.149Z" transform="translate(-612.143 1496.053)" fill="#ececec"/>
    <path id="Path_383" data-name="Path 383" d="M1066.576,963.766l13.474-18.656-19.76,4.022Z" transform="translate(-537.948 1357.483)" fill="#e5e5e5"/>
    <path id="Path_384" data-name="Path 384" d="M1111.815,1226.266l34.156-28.608-38.991-1.848Z" transform="translate(-561.509 1230.973)" fill="#e5e5e5"/>
    <path id="Path_385" data-name="Path 385" d="M774.68,938.828h1.08l.277-1.268-1.268.426C774.739,938.273,774.71,938.551,774.68,938.828Z" transform="translate(-393.822 1361.292)" fill="#e3e3e3"/>
    <path id="Path_386" data-name="Path 386" d="M1793.921,724.226l-2.655-2.546-3.686,2.477,4.122,1.982Z" transform="translate(-904.958 1470.231)" fill="#e3e3e3"/>
    <path id="Path_387" data-name="Path 387" d="M1471.639,1058.914l3.25-2.6-2.214-4.493-2.794,4.335Z" transform="translate(-744.638 1303.634)" fill="#e3e3e3"/>
    <path id="Path_388" data-name="Path 388" d="M1570.261,661.871l-10.606-5.3-1.065,6.811,14.762,5.563,3.081-1.243Z" transform="translate(-789.404 1503.087)" fill="#a5a5a5"/>
    <path id="Path_389" data-name="Path 389" d="M1671.61,700.1l7.178,17.932,2.71-2.853-4.29-15.451Z" transform="translate(-846.437 1481.308)" fill="#ececec"/>
    <path id="Path_390" data-name="Path 390" d="M716.292,1096.237q-.233-10.75-.451-20.647l-3.785,1.833-1.486,17.085Z" transform="translate(-361.47 1291.639)" fill="#ececec"/>
    <path id="Path_391" data-name="Path 391" d="M1501.29,710.226l32.348,5.058-1.813-6.44-26.255-7.114Z" transform="translate(-760.488 1480.298)" fill="#ececec"/>
    <path id="Path_392" data-name="Path 392" d="M1907.3,883.981l-2.992,30.064,4,2.972.079-.173,8.407-41.3Z" transform="translate(-963.863 1392.589)" fill="#e5e5e5"/>
    <path id="Path_393" data-name="Path 393" d="M884.339,928.67,855.8,942.649l-.441,5.221.193-.025,41.586-15.371Z" transform="translate(-434.535 1365.778)" fill="#e5e5e5"/>
    <path id="Path_394" data-name="Path 394" d="M1484.92,1179.62l-1.59,3.037,1.347,2.531,14.693-.99c-.55-1.328-1.095-2.665-1.65-4.008Z" transform="translate(-751.425 1239.143)" fill="#a5a5a5"/>
    <path id="Path_395" data-name="Path 395" d="M1522.322,954.15l-1.982,2.868,1.045,2.715,14.926.812q-.58-2.11-1.169-4.24Z" transform="translate(-770.102 1352.921)" fill="#a5a5a5"/>
    <path id="Path_396" data-name="Path 396" d="M809.722,1061.811l-10.373-12.2-5.945,1.7-1.164,6.589,3.324,8.461Z" transform="translate(-402.683 1304.75)" fill="#a5a5a5"/>
    <path id="Path_397" data-name="Path 397" d="M1777.66,820.466l9.372.431q.862-1.694,1.64-3.21l-2.358-3.136-4.954-1.981Z" transform="translate(-899.952 1424.366)" fill="#a5a5a5"/>
    <path id="Path_398" data-name="Path 398" d="M1186.715,776.21c-.7.5-1.387.956-2.075,1.422l-.06,2.219,2.353-3.611Z" transform="translate(-600.668 1442.714)" fill="#d7d6d6"/>
    <path id="Path_399" data-name="Path 399" d="M1774.667,1152.86c-.074-.748-.149-1.486-.218-2.219l-1.7-.99,1.8,3.373a1.89,1.89,0,0,1,.114-.164Z" transform="translate(-897.474 1254.266)" fill="#d7d6d6"/>
    <path id="Path_400" data-name="Path 400" d="M743.36,855.574q-1.06,2.209-2.11,4.364l2.016,3.775.5-8.3Z" transform="translate(-376.952 1402.748)" fill="#d7d6d6"/>
    <path id="Path_401" data-name="Path 401" d="M760.176,730.28l-1.243-1.06L739.37,740.539l.109.178,4.171,3.606,17.219-7.971Z" transform="translate(-376.004 1466.426)" fill="#e5e5e5"/>
    <path id="Path_402" data-name="Path 402" d="M795.021,807.449l-.723-.129-5.018,8.818.084.045,2.432.456,4.87-7Z" transform="translate(-401.19 1427.015)" fill="#e5e5e5"/>
    <path id="Path_403" data-name="Path 403" d="M1353.376,989.212l1.873-1.937-10.234-26.255-2.744.159Z" transform="translate(-680.243 1349.454)" fill="#a5a5a5"/>
    <path id="Path_404" data-name="Path 404" d="M681.484,666.27l-.664.55,2.011,4.954q-.238-2.551-.5-5.2Z" transform="translate(-346.458 1498.193)" fill="#a5a5a5"/>
    <path id="Path_405" data-name="Path 405" d="M894.568,1239.712l-.208,1.927,10.992,4.86-8.917-7.659Z" transform="translate(-454.216 1209.259)" fill="#a5a5a5"/>
    <path id="Path_406" data-name="Path 406" d="M1262.774,1256.3l.817.347,3.582-4.156-4.533,2.883Z" transform="translate(-640.059 1202.371)" fill="#a5a5a5"/>
    <path id="Path_407" data-name="Path 407" d="M1267.61,708.106l3.037,2.6,1.283-.778-3.884-3.364C1267.9,707.075,1267.759,707.59,1267.61,708.106Z" transform="translate(-642.567 1477.861)" fill="#ececec"/>
    <path id="Path_408" data-name="Path 408" d="M1765.292,1015.2l-4.557-4.716-2.224,1.07,5.831,6.1Z" transform="translate(-890.288 1324.495)" fill="#ececec"/>
    <path id="Path_409" data-name="Path 409" d="M1687.811,900.933l5.761,1.338,1.159-1.9-7.4-1.759C1687.489,899.383,1687.662,900.161,1687.811,900.933Z" transform="translate(-854.369 1380.948)" fill="#ececec"/>
    <path id="Path_410" data-name="Path 410" d="M961.48,1121.236l.961.584.238-.991Z" transform="translate(-488.086 1268.81)" fill="#ececec"/>
    <path id="Path_411" data-name="Path 411" d="M747.453,804.11l-.743.619.718.461C747.438,804.828,747.443,804.472,747.453,804.11Z" transform="translate(-379.708 1428.635)" fill="#ececec"/>
    <path id="Path_412" data-name="Path 412" d="M1020.037,806.4l-4.077-.991.277,3.7Z" transform="translate(-515.578 1427.979)" fill="#ececec"/>
    <path id="Path_413" data-name="Path 413" d="M1613.627,1010.363l8.644-2.115.58-7.718-12.142,1.59-.679,3.775Z" transform="translate(-815.362 1329.516)" fill="#a5a5a5"/>
    <path id="Path_414" data-name="Path 414" d="M863.023,727.4l8.451-5.409-2.2-8.446-12.384,6.123.654,4.28Z" transform="translate(-435.307 1474.339)" fill="#a5a5a5"/>
    <path id="Path_416" data-name="Path 416" d="M1875.931,785.654l-.263-.614-.669.575Z" transform="translate(-949.072 1438.258)" fill="#d8d9d8"/>
    <path id="Path_417" data-name="Path 417" d="M855.319,666.83l-1.219,2.135,3.155.669Z" transform="translate(-433.899 1497.91)" fill="#d8d9d8"/>
    <path id="Path_418" data-name="Path 418" d="M1635.454,1185.394l2.507-1.268-2.591-2.625Z" transform="translate(-828.149 1238.194)" fill="#d8d9d8"/>
    <path id="Path_420" data-name="Path 420" d="M1743.473,914l-5.063,6.266c.1,1.308.2,2.616.3,3.918l.946.228,7.247-8.872Z" transform="translate(-880.146 1373.181)" fill="#e5e5e5"/>
    <path id="Path_423" data-name="Path 423" d="M1296.13,766.323q0-3.037-.049-6.044l-9.759,4.85-.411,4.037Z" transform="translate(-651.802 1450.753)" fill="#e3e3e3"/>
    <path id="Path_424" data-name="Path 424" d="M1765.7,772.348l1.3-3.106-3.032-1.912-.991,4.656.738.565Z" transform="translate(-892.544 1447.195)" fill="#a5a5a5"/>
    <path id="Path_425" data-name="Path 425" d="M1342.458,1117.372l6.653-3.9-2.918-7.673-8.193,7.183.57,2.046Z" transform="translate(-678.088 1276.394)" fill="#a5a5a5"/>
    <path id="Path_426" data-name="Path 426" d="M1069.5,769.86l-11.29,4.607,2.848,12.662,14.44-9.412-.441-3.334Z" transform="translate(-536.899 1445.918)" fill="#a5a5a5"/>
    <path id="Path_428" data-name="Path 428" d="M807.415,1205.386l6.9-12.092-8.991-.694Z" transform="translate(-409.284 1232.593)" fill="#a5a5a5"/>
    <path id="Path_429" data-name="Path 429" d="M1515.878,1018.565l1.917-5.395-3.7.371Z" transform="translate(-766.953 1323.138)" fill="#a5a5a5"/>
    <path id="Path_430" data-name="Path 430" d="M1373.545,827.83l-6.935,2.432.822.545,5.741-.53C1373.307,829.47,1373.426,828.647,1373.545,827.83Z" transform="translate(-692.525 1416.665)" fill="#e5e5e5"/>
    <path id="Path_431" data-name="Path 431" d="M1454.264,1239.748l6.44-5.365-1.1-.263-5.944,2.858C1453.873,1237.89,1454.071,1238.821,1454.264,1239.748Z" transform="translate(-736.453 1211.64)" fill="#e5e5e5"/>
    <path id="Path_432" data-name="Path 432" d="M1878.552,1220.434l-3.007-2.764-.055.55,1.764,2.675Z" transform="translate(-949.32 1219.942)" fill="#e5e5e5"/>
    <path id="Path_433" data-name="Path 433" d="M931.66,1059.74v1.025l2.477.654.5-.56Z" transform="translate(-473.038 1299.637)" fill="#a5a5a5"/>
    <path id="Path_434" data-name="Path 434" d="M1027.445,1129.381l.619-.233c-.07-.55-.134-1.1-.2-1.64l-.446-.149Z" transform="translate(-521.361 1265.515)" fill="#a5a5a5"/>
    <path id="Path_435" data-name="Path 435" d="M1779.578,961.571l2.076-1.635v-.991l-1.1-.5-2.2,2.284Z" transform="translate(-900.3 1350.751)" fill="#e3e3e3"/>
    <path id="Path_436" data-name="Path 436" d="M1631.708,915.83l-5.008,12.528c.867,1.486,1.719,2.972,2.576,4.458l6.1-.708,3.859-15.7Z" transform="translate(-823.774 1372.258)" fill="#e3e3e3"/>
    <path id="Path_437" data-name="Path 437" d="M1091.9,883.239l.05-.862-4.87-1.387.5,3.676,1.189.456Z" transform="translate(-551.467 1389.839)" fill="#f3f3f3"/>
    <path id="Path_438" data-name="Path 438" d="M1142.316,1120.5l-1.872-2.15-14.663,7.98,9.615,7.54,3.839-1.669Q1140.75,1126.39,1142.316,1120.5Z" transform="translate(-570.996 1270.061)" fill="#f3f3f3"/>
    <path id="Path_439" data-name="Path 439" d="M999.76,754.188l2.076,1.486,11.111-10L1003,741.11l-2.972,2.254C999.928,746.941,999.844,750.557,999.76,754.188Z" transform="translate(-507.403 1460.426)" fill="#f3f3f3"/>
    <path id="Path_440" data-name="Path 440" d="M1003.081,953.69l-.862-.52-.149,1.12Z" transform="translate(-508.569 1353.415)" fill="#d8d9d8"/>
    <path id="Path_441" data-name="Path 441" d="M1149.671,869.792l-2.551-.9.208,3.022Z" transform="translate(-581.765 1395.945)" fill="#d8d9d8"/>
    <path id="Path_442" data-name="Path 442" d="M1419.92,933.19l.332,4.879,4.87-2.507Z" transform="translate(-719.427 1363.498)" fill="#d8d9d8"/>
    <path id="Path_443" data-name="Path 443" d="M989.529,659.62l-8.724.951-4.275,18.537,6.237,8.3,18.2-4.384Z" transform="translate(-495.681 1501.548)" fill="#a5a5a5"/>
    <path id="Path_444" data-name="Path 444" d="M1802.768,665.67l-1.348,2.363,3.869,4.453,3.225-.049,2.219-5.37Z" transform="translate(-911.942 1498.495)" fill="#a5a5a5"/>
    <path id="Path_445" data-name="Path 445" d="M715.63,933.985q6.584,8.734,12.771,16.957l.045-.084-10.4-17.368Z" transform="translate(-364.024 1363.346)" fill="#e5e5e5"/>
    <path id="Path_447" data-name="Path 447" d="M1128.956,988.13l-4.716.471,3.1,3.007Z" transform="translate(-570.219 1335.773)" fill="#ececec"/>
    <path id="Path_449" data-name="Path 449" d="M1341.26,718.046l23.565,4.929-10.393-19.315Z" transform="translate(-679.733 1479.325)" fill="#ececec"/>
    <path id="Path_451" data-name="Path 451" d="M1050.083,1264.659l1.208-1.1-.882-.584-1.65,1.214Z" transform="translate(-532.13 1197.082)" fill="#a5a5a5"/>
    <path id="Path_452" data-name="Path 452" d="M1227.616,974.6l-.446,1.149,1.61-.372Z" transform="translate(-622.16 1342.601)" fill="#e5e5e5"/>
    <path id="Path_453" data-name="Path 453" d="M1315.735,1214.253l-2.343-2.373-.862,4.384Z" transform="translate(-665.235 1222.863)" fill="#e5e5e5"/>
    <path id="Path_454" data-name="Path 454" d="M877.938,1098.4l-.2.7.926-.312Z" transform="translate(-445.829 1280.128)" fill="#e5e5e5"/>
    <path id="Path_455" data-name="Path 455" d="M1286.75,921.236q2.938,5.761,5.841,11.448l3.373.4-3.591-15.54h-2.224Z" transform="translate(-652.226 1371.395)" fill="#d8d9d8"/>
    <path id="Path_456" data-name="Path 456" d="M1538.966,1129.27l-18.18,5.305-1.486,4.77,23.49-.911.58-3.225Z" transform="translate(-769.577 1264.551)" fill="#d8d9d8"/>
    <path id="Path_457" data-name="Path 457" d="M691.928,1008.73l-3.468,2.14,1.2,1.035,3.23-2.69Z" transform="translate(-350.313 1325.378)" fill="#d7d6d6"/>
    <path id="Path_458" data-name="Path 458" d="M1692.983,771.46l-15.173,1.818,2.477,5.419,15.258-4.037Z" transform="translate(-849.565 1445.111)" fill="#d7d6d6"/>
    <path id="Path_460" data-name="Path 460" d="M1246.818,1186.785l4.458-3.279-9.239-29.054-2.4-.322-6.935,7.01q3.433,10.814,7.153,22.475Z" transform="translate(-624.951 1252.006)" fill="#a5a5a5"/>
    <path id="Path_461" data-name="Path 461" d="M1265.069,1073.855l-5.107-3.765-28.682,19.969.456,2.744,10.036,5.211q10.67-7.431,22.188-15.456Q1264.509,1078.219,1265.069,1073.855Z" transform="translate(-624.234 1294.414)" fill="#f3f3f3"/>
    <path id="Path_462" data-name="Path 462" d="M1694.022,808.63l-3.542,5.841,24.2,28.786,2.893-.758q2.294-5.6,4.607-11.26-9-10.715-18.73-22.267Z" transform="translate(-855.959 1426.354)" fill="#a5a5a5"/>
    <path id="Path_463" data-name="Path 463" d="M1715.163,1069.2c-.307-.629-.619-1.253-.926-1.882-1.04,2.62-2.046,5.157-3.017,7.589l.991-.1Z" transform="translate(-866.425 1295.812)" fill="#a5a5a5"/>
    <path id="Path_464" data-name="Path 464" d="M1813.468,1060.83l-6.167-.59q7.475,10.017,14.4,19.32c.421-.877.847-1.754,1.268-2.635Z" transform="translate(-914.909 1299.385)" fill="#a5a5a5"/>
    <path id="Path_465" data-name="Path 465" d="M1159.959,708.313l8.753-.911q-13.227-11.859-25.5-22.891-.5,2.006-1.025,4.027Z" transform="translate(-579.277 1488.988)" fill="#a5a5a5"/>
    <path id="Path_466" data-name="Path 466" d="M795.69,870.585l-8.5-5.315-4.85,1.273L778,878.858l15.778,11.889Q794.729,880.642,795.69,870.585Z" transform="translate(-395.497 1397.772)" fill="#ececec"/>
    <path id="Path_467" data-name="Path 467" d="M974.79,879.119l1.858-.273.54-.768-.872-2.289-3.7.213Z" transform="translate(-493.708 1392.463)" fill="#ececec"/>
    <path id="Path_468" data-name="Path 468" d="M1871.568,1100.259l7.8-5.707q.307-2.4.6-4.8l-9.452-8.317-16.318,9.853Z" transform="translate(-938.576 1288.687)" fill="#ececec"/>
    <path id="Path_471" data-name="Path 471" d="M1399.587,1101.5l-2.427,14.222,10.963.03-7.822-14.425Z" transform="translate(-707.942 1278.65)" fill="#a5a5a5"/>
    <path id="Path_472" data-name="Path 472" d="M1187.486,925.807l3.215.713-5.172-9.64-1.749,2.105Z" transform="translate(-600.265 1371.729)" fill="#a5a5a5"/>
    <path id="Path_473" data-name="Path 473" d="M1433.661,772.411c-.272-.872-.54-1.739-.8-2.591l-2.318,1.9,2.536,1.417Z" transform="translate(-724.786 1445.938)" fill="#ececec"/>
    <path id="Path_474" data-name="Path 474" d="M1268.261,664.9l-2.026-1.912-1.115,2.868h2.972Z" transform="translate(-641.311 1499.848)" fill="#ececec"/>
    <path id="Path_475" data-name="Path 475" d="M1753.82,1085.812l8.391,9.184q2.973-6.187,5.944-12.384l-13.3-.911Z" transform="translate(-887.922 1288.556)" fill="#ececec"/>
    <path id="Path_476" data-name="Path 476" d="M1729.49,670.169l5.85,9.288.525-.1,4.354-13.608Z" transform="translate(-875.644 1498.455)" fill="#e5e5e5"/>
    <path id="Path_477" data-name="Path 477" d="M1635.64,782.32c-.178,1.115-.362,2.214-.54,3.309l.144.084,3.75-2.234Z" transform="translate(-828.013 1439.631)" fill="#e5e5e5"/>
    <path id="Path_478" data-name="Path 478" d="M867.468,1189.73l1.59.178c-.371-1.125-.738-2.254-1.11-3.388l-2.289.064Z" transform="translate(-439.733 1235.66)" fill="#a5a5a5"/>
    <path id="Path_479" data-name="Path 479" d="M917.587,661.784l-.991-1.694-2.536,3.567,1.734,2.214Z" transform="translate(-464.157 1501.311)" fill="#a5a5a5"/>
    <path id="Path_481" data-name="Path 481" d="M812.884,710.86q-.06,3.874-.114,7.693L818.4,713.8Z" transform="translate(-413.043 1475.691)" fill="#d7d6d6"/>
    <path id="Path_482" data-name="Path 482" d="M1067.851,665l-2.531.9,2.244,1.258C1067.638,666.417,1067.757,665.693,1067.851,665Z" transform="translate(-540.487 1498.833)" fill="#d7d6d6"/>
    <path id="Path_483" data-name="Path 483" d="M1157.262,1068.38l-.852,2.635,2.437-1.04Z" transform="translate(-586.453 1295.277)" fill="#d7d6d6"/>
    <path id="Path_485" data-name="Path 485" d="M1675.793,661.741l2.105.421-.223-2.413-2.085,1.328Z" transform="translate(-848.445 1501.483)" fill="#a5a5a5"/>
    <path id="Path_486" data-name="Path 486" d="M1420.081,863.883l5.989-5.821-8.218-4.612q-.178,4.785-.352,9.62Z" transform="translate(-718.206 1403.737)" fill="#a5a5a5"/>
    <path id="Path_487" data-name="Path 487" d="M1526.73,1073.4v7.7l8.332-2.477-6.133-6.44Z" transform="translate(-773.326 1293.36)" fill="#a5a5a5"/>
    <path id="Path_488" data-name="Path 488" d="M1482.621,924.473l-8.917-10.4-1.714,3.279,9.462,11.161Z" transform="translate(-745.703 1373.146)" fill="#d7d6d6"/>
    <path id="Path_489" data-name="Path 489" d="M1689.751,1210.09l-8.8-8.53-1.263,3.066,9.368,9.189Z" transform="translate(-850.514 1228.071)" fill="#d7d6d6"/>
    <path id="Path_490" data-name="Path 490" d="M741.751,676.537l-7.659-12.6c-.8,1.06-1.6,2.125-2.4,3.19l8.079,13.529Z" transform="translate(-372.128 1499.368)" fill="#d7d6d6"/>
    <path id="Path_491" data-name="Path 491" d="M996.188,1074.7l3.468-1.154-2.3-2.086-1.412,2.972Z" transform="translate(-505.476 1293.723)" fill="#a5a5a5"/>
    <path id="Path_492" data-name="Path 492" d="M1573.487,893.062l3.126-2.145-2.893-1.417q-.282,1.674-.56,3.339Z" transform="translate(-796.756 1385.545)" fill="#a5a5a5"/>
    <path id="Path_493" data-name="Path 493" d="M1831.289,991.739l2.794-.267-1.367-1.952-1.555,1.982Z" transform="translate(-926.95 1335.073)" fill="#a5a5a5"/>
    <path id="Path_494" data-name="Path 494" d="M1500.83,776.138l1.813-.689-1.031-1.139Z" transform="translate(-760.256 1443.673)" fill="#e3e3e3"/>
    <path id="Path_495" data-name="Path 495" d="M682.57,1158.34l.263.416.228-.312Z" transform="translate(-347.341 1249.881)" fill="#e3e3e3"/>
    <path id="Path_496" data-name="Path 496" d="M1052.534,846.774l-1.882-1.2-.342,1.734Z" transform="translate(-532.912 1407.713)" fill="#e3e3e3"/>
    <path id="Path_497" data-name="Path 497" d="M1621.969,733.17l-.03,1.6,6.742-2.234-2.972-1.546Z" transform="translate(-821.372 1465.533)" fill="#e5e5e5"/>
    <path id="Path_498" data-name="Path 498" d="M910.758,1148.328l1.555-.9q-3.027-2.586-6.073-5.177l.233,3.74Z" transform="translate(-460.211 1258)" fill="#e5e5e5"/>
    <path id="Path_499" data-name="Path 499" d="M1416.8,678l-5.3,3.854,19.2,7.465-.862-2.833Z" transform="translate(-715.178 1492.273)" fill="#e5e5e5"/>
    <path id="Path_500" data-name="Path 500" d="M754.12,1008.256l5.8,2.477-3.324-19.523-1.912,2.11Q754.4,1000.815,754.12,1008.256Z" transform="translate(-383.447 1334.219)" fill="#e5e5e5"/>
    <path id="Path_503" data-name="Path 503" d="M970.75,1007.924l1.773,1.268,6.6-1.932Z" transform="translate(-492.764 1326.12)" fill="#a5a5a5"/>
    <path id="Path_505" data-name="Path 505" d="M672.52,955.386q2.333-4.156,4.691-8.332l-1.486-1.724Z" transform="translate(-342.269 1357.372)" fill="#a5a5a5"/>
    <path id="Path_506" data-name="Path 506" d="M859.93,1025l9.353,2.135,1.228-1.942Z" transform="translate(-436.841 1317.168)" fill="#a5a5a5"/>
    <path id="Path_507" data-name="Path 507" d="M1012.252,1191.586l1.174-19.156-14.366,4.419,6.559,8.842Z" transform="translate(-507.05 1242.771)" fill="#a5a5a5"/>
    <path id="Path_508" data-name="Path 508" d="M1217.62,870l.446,4.33,3.052-1.521-1.793-1.734Z" transform="translate(-617.341 1395.385)" fill="#a5a5a5"/>
    <path id="Path_510" data-name="Path 510" d="M1067.836,1208.73l-.976,1.575.629,1.025,1.536.015,1.645-2.195Z" transform="translate(-541.264 1224.453)" fill="#d7d6d6"/>
    <path id="Path_511" data-name="Path 511" d="M1582.024,950.017l1.412-1.877-.406-.069-1.1,1.833Z" transform="translate(-801.182 1355.989)" fill="#a5a5a5"/>
    <path id="Path_512" data-name="Path 512" d="M1081.54,1146.555l1.486,5.147.679-.634q-.907-2.229-1.853-4.528Z" transform="translate(-548.672 1255.835)" fill="#a5a5a5"/>
    <path id="Path_514" data-name="Path 514" d="M1356.09,786.965l1.7,2.091.045-2.665Z" transform="translate(-687.217 1437.577)" fill="#a5a5a5"/>
    <path id="Path_515" data-name="Path 515" d="M1678.372,1034.869l-2.972-.6,1.863,2.343Z" transform="translate(-848.349 1312.49)" fill="#a5a5a5"/>
    <path id="Path_516" data-name="Path 516" d="M1710.48,1151.95l5.623,5.667.258-.064,1.981-.718-.064-4.726-2.289-2.64-3.106-2.368-2.026.793Z" transform="translate(-866.051 1255.553)" fill="#d8d9d8"/>
    <path id="Path_518" data-name="Path 518" d="M745.327,1176.079l-10.452-3.319-4.285,1.679,3,22,7.064,1.486,7.01-4.429Q746.536,1185.035,745.327,1176.079Z" transform="translate(-371.573 1242.604)" fill="#d7d6d6"/>
    <path id="Path_519" data-name="Path 519" d="M1061.464,1055.41l-1.184,13.425,3.156,4.686,25.586-9.476-.139-8.862-7.183-7.223Z" transform="translate(-537.943 1305.582)" fill="#d7d6d6"/>
    <path id="Path_520" data-name="Path 520" d="M1277.53,996.64l1.412,3.309,1.139-3-2.269-.3Z" transform="translate(-647.573 1331.479)" fill="#d7d6d6"/>
    <path id="Path_522" data-name="Path 522" d="M1300.55,841.34l-.04,6.3,5.112-3.176Z" transform="translate(-659.17 1409.848)" fill="#a5a5a5"/>
    <path id="Path_523" data-name="Path 523" d="M1528.228,868.6l-.094-2.819-2.234,1.511Z" transform="translate(-772.908 1397.515)" fill="#a5a5a5"/>
    <path id="Path_524" data-name="Path 524" d="M1482.348,874.543l-.02-2.923-2.348,1.5Z" transform="translate(-749.735 1394.568)" fill="#a5a5a5"/>
    <path id="Path_525" data-name="Path 525" d="M1249.99,1040.618l-1.981-1.258-.188.178Z" transform="translate(-632.581 1309.921)" fill="#e5e5e5"/>
    <path id="Path_526" data-name="Path 526" d="M916.617,838.94l-5.147,1.749.06.6Z" transform="translate(-462.85 1411.059)" fill="#e5e5e5"/>
    <path id="Path_527" data-name="Path 527" d="M1569.52,1027l.917,5.945.659.054C1570.58,1031.057,1570.05,1029.046,1569.52,1027Z" transform="translate(-794.919 1316.159)" fill="#e5e5e5"/>
    <path id="Path_529" data-name="Path 529" d="M679.4,1207l-1.546.674-.178,5.127,2.026-1.243c.054-1.332.114-2.675.168-4.022Z" transform="translate(-344.873 1225.326)" fill="#e3e3e3"/>
    <path id="Path_530" data-name="Path 530" d="M680.7,721.078l.852,1.531,5.345-.327-1.486-1.982-4.191.233A6.642,6.642,0,0,0,680.7,721.078Z" transform="translate(-346.397 1470.928)" fill="#e3e3e3"/>
    <path id="Path_532" data-name="Path 532" d="M1470.722,821.6l.332-.292c.064-.659.124-1.323.183-1.982l-5.291-1.427-1.486,1.035Z" transform="translate(-741.903 1421.676)" fill="#e5e5e5"/>
    <path id="Path_533" data-name="Path 533" d="M1880.7,667.531l.337.1,1.377-.723-1.3-4.087-1.318-.54Z" transform="translate(-951.49 1500.206)" fill="#e5e5e5"/>
    <path id="Path_534" data-name="Path 534" d="M1564.591,771.468l4.057-.139,5.91-11.889-12,2.09-1.095,3.294C1562.5,767.034,1563.546,769.248,1564.591,771.468Z" transform="translate(-790.852 1451.177)" fill="#ececec"/>
    <path id="Path_535" data-name="Path 535" d="M1328.509,672.025l1.04-.277.807-3.428-2.972,1.263-.084.917Z" transform="translate(-672.688 1497.158)" fill="#ececec"/>
    <path id="Path_536" data-name="Path 536" d="M931.256,981.35l-.936.906,1.149,4.1,2.412-3.081-.451-1.02Z" transform="translate(-472.362 1339.195)" fill="#ececec"/>
    <path id="Path_538" data-name="Path 538" d="M1896.114,1164.06l-2.125,1.937-.089,1.263,6.36,2.234,2.6-1.982Z" transform="translate(-958.61 1246.994)" fill="#a5a5a5"/>
    <path id="Path_539" data-name="Path 539" d="M943.425,752.817l.545-.312-.57-.565Z" transform="translate(-478.962 1454.961)" fill="#e3e3e3"/>
    <path id="Path_540" data-name="Path 540" d="M921.564,886.863l1.922-1.56-2.566-1.833Z" transform="translate(-467.619 1388.588)" fill="#e3e3e3"/>
    <path id="Path_541" data-name="Path 541" d="M1380.071,1057.7l.337-.53-.768-.233Z" transform="translate(-699.101 1301.05)" fill="#e3e3e3"/>
    <path id="Path_542" data-name="Path 542" d="M664.41,1268.92,674.6,1282.6h747.851" transform="translate(-338.177 1194.08)" fill="none" stroke="#6c6c6c" stroke-width="2"/>
    <path id="Path_294" data-name="Path 294" d="M2300.679,891.6l-2.541,1.9a73.482,73.482,0,0,0,2.878,29.514,28.2,28.2,0,0,1-20.36.416c-1.57-7.465,2.344-14.628,1.952-22.44l-3.616-4.057c0-.768-.174-1.352.03-1.744,1.862-3.582,1.248-7.331.852-11.077a383.377,383.377,0,0,1-2.447-47.387,21.4,21.4,0,0,1,.833-5.172c1.981-7.222,4.285-14.366,3.467-22.034-.327-3.012,1.942-5.092,2.665-7.926-3.418-9.031-1.922-18.745-2.67-28.2-.316-3.988-1.283-7.871-1.372-11.849-.154-6.6.713-13.167-.03-19.815-.565-5,.743-9.992,2.18-14.827.574-1.937,1.2-3.809.693-6.182-5.9-3.829-12.454-6.97-18.2-11.5a129.939,129.939,0,0,1-15.148-14.653,12.635,12.635,0,0,1-2.729-13.306c2.006-5.944,3.844-11.993,7.029-17.417a248.794,248.794,0,0,0,12.662-24.769,20.9,20.9,0,0,1,11.364-11.394c7.138-3,14-6.663,21.108-10.1,3.205-3.785,2.888-9.472,6.47-12.345.416-3.1-1.783-4.131-2.665-5.945-.5-6.44.5-12.949-.629-19.121,1.318-2.611,2.442-4.84,3.512-6.97,11.161-7.327,16.407-6.8,26.517,2.6,3.18,4.879.5,11.612,5.385,15.713-.679,2.556-1.259,4.721-1.982,7.391-3.928,1.456-5.687,4.731-5.518,9.6,3.557,3.165,4.483,7.777,4.493,12.845,5.835,3.235,11.349,6.762,17.249,9.412,5.633,2.541,8.283,6.9,9.937,12.384a47.974,47.974,0,0,1,1.645,9.62c1.2,13.509,4.062,26.75,7.431,40.081-3.963,6.227-3.383,13.925-6.44,20.528-1.863,4.013-2.179,9-6.633,10.368-5.34,12.226-6.069,24.422-6.267,36.658-.228,14.069-2.15,28.068-1.813,42.161.05,2.08-.772,3.908-1.511,6.053,1.07,3.651,2.3,7.564,1.026,11.577a6.271,6.271,0,0,0,.238,3.6c2.353,10.4,1.981,21,1.625,31.526-.282,8.649,1.219,16.986,2.972,25.878-3.587,6.583-1.248,12.682,2.294,19.24,3.686,6.821,8.649,10.779,15.356,11.121,2.061,1.877,2.091,3.344,1.8,4.884-2.6,2.571-21.415,1.531-27.176-1.679-4.419,2.031-9.046.8-13.683-.362-1.317-5.449-1.744-10.7-.03-16.129.624-1.981.213-4.26-.54-6.554-1.843-5.617-2.863-11.522-1.625-17.447a24.872,24.872,0,0,0-.282-12.6c-2.932-9.873-3.4-20.177-4.795-30.322a11.227,11.227,0,0,1,1.125-5.781c-1.917-13.033-6.682-24.848-6.068-37.648.218-4.5-1.655-8.689-3.849-14.153-7.624,16.739-8.545,33.879-13.608,51.97-2.928,2.972-4.419,8.208-2.18,14.311a7.069,7.069,0,0,1,.2,3.72c-2.313,10.968-.7,22.079-1.442,33.8-.307,1.907-2.64,3.468-3.467,5.627C2296.067,887.034,2300.883,887.326,2300.679,891.6Zm-23.733-214.635c-2.561,4.458-5.077,7.272-4.458,11.329,2.69,2.373,5.449,4.364,8.337,8.421A69.86,69.86,0,0,0,2276.946,676.961Z" transform="translate(-1136.442 1551.694)" fill="#c49966"/>
    <path id="Path_297" data-name="Path 297" d="M2167.48,656.45l13.459,13.459V973.534l-13.459-13.459" transform="translate(-1096.666 1503.148)" fill="none" stroke="#6c6c6c" stroke-linecap="round" stroke-linejoin="bevel" stroke-width="2"/>
    <path id="Path_298" data-name="Path 298" d="M2150.751,725.18l-.451,2.091,1.982-.456Z" transform="translate(-1087.996 1468.465)" fill="#d7d6d6"/>
    <path id="Path_302" data-name="Path 302" d="M2155.623,846.763l.991-1.417-2.343-.4Z" transform="translate(-1089.999 1408.026)" fill="#a5a5a5"/>
    <path id="Path_307" data-name="Path 307" d="M1939.467,1054l-8.377,11.007,12.384,4.458Q1941.448,1061.673,1939.467,1054Z" transform="translate(-977.377 1302.534)" fill="#ececec"/>
    <path id="Path_308" data-name="Path 308" d="M2148.09,670.61l.733,2.948,2.476-1.486Z" transform="translate(-1086.881 1496.003)" fill="#ececec"/>
    <path id="Path_312" data-name="Path 312" d="M2019.54,834.984l.743-.158-.342-.436Z" transform="translate(-1022.011 1413.354)" fill="#ececec"/>
    <path id="Path_318" data-name="Path 318" d="M2155.139,1217.61l-.6.4.074.035Z" transform="translate(-1090.136 1219.971)" fill="#ececec"/>
    <path id="Path_320" data-name="Path 320" d="M2136.37,941.99q1.887,4.022,3.527,7.569l9.273-10.715L2146.2,932.9Z" transform="translate(-1080.967 1363.644)" fill="#ececec"/>
    <path id="Path_322" data-name="Path 322" d="M1973.2,1022.259l-1.234-8.079-7.807-.619-1.05,1.982q1.1,4.1,2.214,8.213l6.162,1.055Z" transform="translate(-993.535 1322.941)" fill="#e5e5e5"/>
    <path id="Path_325" data-name="Path 325" d="M2112.445,1055.249l.629-.659,1.065-8.917-14.43-6.113q-.04,4.419-.069,8.857Z" transform="translate(-1062.432 1309.821)" fill="#d7d6d6"/>
    <path id="Path_329" data-name="Path 329" d="M2135.592,884.906l-.495-1.016L2134.76,885Z" transform="translate(-1080.154 1388.376)" fill="#a5a5a5"/>
    <path id="Path_331" data-name="Path 331" d="M1949.888,1127.253l.951-4.523-5.39,1.516-.05.679Z" transform="translate(-984.598 1267.851)" fill="#ececec"/>
    <path id="Path_333" data-name="Path 333" d="M1973.819,885.431l-8.109,33.542,5.667.991,12.167-36.073Z" transform="translate(-994.847 1388.376)" fill="#e5e5e5"/>
    <path id="Path_350" data-name="Path 350" d="M2099.21,1193.578l3.374.5-1.635-3.933Z" transform="translate(-1062.215 1233.834)" fill="#d8d9d8"/>
    <path id="Path_363" data-name="Path 363" d="M2045.159,1043.621l.089-7.252-4.864-1.719-4.493,4.756q.238,2.452.5,4.909l4.117,1.982Z" transform="translate(-1030.262 1312.298)" fill="#d7d6d6"/>
    <path id="Path_365" data-name="Path 365" d="M2006.376,1088.22l-3.16,1.035c-.158.991-.312,1.942-.5,2.913l3.468,1.675,3.3-2.3.277-1.263Z" transform="translate(-1013.523 1285.265)" fill="#d7d6d6"/>
    <path id="Path_368" data-name="Path 368" d="M1925.383,738.61l.778-2.16-3.671.267.867,2.051Z" transform="translate(-973.037 1462.778)" fill="#d7d6d6"/>
    <path id="Path_371" data-name="Path 371" d="M1956.91,1175.488l3.393,1.729.154-2.467-3.522.6Z" transform="translate(-990.407 1241.6)" fill="#ececec"/>
    <path id="Path_377" data-name="Path 377" d="M2161.82,1100.67l2.8-.149-1.327-2.581Z" transform="translate(-1093.81 1280.361)" fill="#ececec"/>
    <path id="Path_382" data-name="Path 382" d="M2110.65,1247.451l-1.427-.921-.674,1.328,1.863,1.214Z" transform="translate(-1066.928 1205.378)" fill="#ececec"/>
    <path id="Path_415" data-name="Path 415" d="M2082.9,842.3q-.5,1.214-.961,2.388l1.719,1.437,1.669-3.121-.773-.8Z" transform="translate(-1053.5 1409.409)" fill="#a5a5a5"/>
    <path id="Path_419" data-name="Path 419" d="M2161.33,1029.08l-1.64,1.8v1.189l.282.084,2.343-2.546Z" transform="translate(-1092.734 1315.109)" fill="#e5e5e5"/>
    <path id="Path_421" data-name="Path 421" d="M2118.684,779.653l11.775.287-8.827-19.32-7.842-1.05Z" transform="translate(-1069.572 1451.111)" fill="#e3e3e3"/>
    <path id="Path_422" data-name="Path 422" d="M2095.44,984.82l-4.81.991,5.385,7.024,3.284-.3Z" transform="translate(-1057.885 1337.444)" fill="#e3e3e3"/>
    <path id="Path_427" data-name="Path 427" d="M2157.41,1164.338l.2-3.938-2.363.991Z" transform="translate(-1090.494 1248.842)" fill="#a5a5a5"/>
    <path id="Path_446" data-name="Path 446" d="M2119.953,1114.54q-5.9,8.04-11.463,15.6h.089l12.439-13.658Z" transform="translate(-1066.898 1271.984)" fill="#e5e5e5"/>
    <path id="Path_448" data-name="Path 448" d="M2024.587,970.744l-14.163-22.054L2003.37,971.5Z" transform="translate(-1013.851 1355.676)" fill="#ececec"/>
    <path id="Path_450" data-name="Path 450" d="M1990.88,777.642c.357-.3.719-.594,1.075-.882l-.719-.54-1.456.956Z" transform="translate(-1006.994 1442.709)" fill="#a5a5a5"/>
    <path id="Path_459" data-name="Path 459" d="M2091.948,682.349l-1.888-7.659-2.62,1.6,3.032,7.564C2090.962,683.349,2091.457,682.854,2091.948,682.349Z" transform="translate(-1056.275 1493.944)" fill="#d7d6d6"/>
    <path id="Path_469" data-name="Path 469" d="M2047.681,724.068l-1.57-4.547-3.21,1.749,4.6,2.972Z" transform="translate(-1033.799 1471.321)" fill="#a5a5a5"/>
    <path id="Path_470" data-name="Path 470" d="M2034.681,781.112l14.9-3.512-4.5-10.72-10.868,13.608Z" transform="translate(-1029.414 1447.422)" fill="#a5a5a5"/>
    <path id="Path_480" data-name="Path 480" d="M2044.226,882.851l-.822-.991-1.263,2.6,1.367,1.253Z" transform="translate(-1033.416 1389.4)" fill="#a5a5a5"/>
    <path id="Path_484" data-name="Path 484" d="M1941.288,797.844l-9.67-13.534-5.509,6.782,3.156,7.168Z" transform="translate(-974.864 1438.626)" fill="#e5e5e5"/>
    <path id="Path_501" data-name="Path 501" d="M1957.29,850.752l2.477,2.685,2.923-11.067-1.511.649Q1959.217,846.908,1957.29,850.752Z" transform="translate(-990.598 1409.328)" fill="#e5e5e5"/>
    <path id="Path_502" data-name="Path 502" d="M2063.838,1104l-.158,2.685,6.335,5.6Z" transform="translate(-1044.286 1277.303)" fill="#a5a5a5"/>
    <path id="Path_504" data-name="Path 504" d="M1945.19,669.29c.778,1.892,1.566,3.794,2.348,5.7l1.486-.074Z" transform="translate(-984.492 1496.669)" fill="#a5a5a5"/>
    <path id="Path_509" data-name="Path 509" d="M2048,1262.794l5.122-2.427-3.186-3.086q-.683,1.486-1.352,2.972Z" transform="translate(-1036.373 1199.953)" fill="#a5a5a5"/>
    <path id="Path_513" data-name="Path 513" d="M1984.1,720.9q.263,1.442.53,2.9l1.441-2.531Z" transform="translate(-1004.127 1470.625)" fill="#a5a5a5"/>
    <path id="Path_517" data-name="Path 517" d="M2004.58,1195.926l1.714,8.788,2.873,2.407,14.589-10.749-1.714-5.632-5.915-3.289Z" transform="translate(-1014.462 1235.191)" fill="#d7d6d6"/>
    <path id="Path_521" data-name="Path 521" d="M2058.731,1161.22l-2.541.069,1.679,1.531.783-1.412C2058.682,1161.344,2058.707,1161.284,2058.731,1161.22Z" transform="translate(-1040.506 1248.428)" fill="#d7d6d6"/>
    <path id="Path_528" data-name="Path 528" d="M2002.45,1141.47l.2.991,1.125-.441Q2003.1,1141.745,2002.45,1141.47Z" transform="translate(-1013.387 1258.394)" fill="#e5e5e5"/>
    <path id="Path_531" data-name="Path 531" d="M2022.415,670.127v-.589l-1.605-.847.084.837,1.253.669Z" transform="translate(-1022.652 1496.971)" fill="#e3e3e3"/>
    <path id="Path_537" data-name="Path 537" d="M2068.8,920.32l4.379,4.513,2.774.1,4.458-14.064-4.458-5.528Z" transform="translate(-1046.869 1377.551)" fill="#a5a5a5"/>
    <g id="Group_3659" data-name="Group 3659" transform="translate(251.544 2158.459)">
      <line id="Line_28" data-name="Line 28" y2="131.17" transform="translate(0 0)" fill="none" stroke="#6c6c6c" stroke-width="2"/>
      <line id="Line_29" data-name="Line 29" y2="130.031" transform="translate(0 174.51)" fill="none" stroke="#6c6c6c" stroke-width="2"/>
    </g>
  </g>
</svg>
