<svg xmlns="http://www.w3.org/2000/svg" width="41.787" height="41.787" viewBox="0 0 41.787 41.787">
  <g id="map" transform="translate(0)">
    <path id="Path_47" data-name="Path 47" d="M214.673,75a3.673,3.673,0,1,0,3.673,3.673A3.677,3.677,0,0,0,214.673,75Zm0,0" transform="translate(-193.779 -68.879)" fill="#272b3e"/>
    <path id="Path_48" data-name="Path 48" d="M145.794,0a9.8,9.8,0,0,0-8.29,15.011l8.29,13.228,8.29-13.228A9.8,9.8,0,0,0,145.794,0Zm0,15.915a6.121,6.121,0,1,1,6.121-6.121A6.128,6.128,0,0,1,145.794,15.915Zm0,0" transform="translate(-124.9)" fill="#272b3e"/>
    <path id="Path_49" data-name="Path 49" d="M183,428.427h11.912L193.967,421H183.914Zm0,0" transform="translate(-168.061 -386.64)" fill="#272b3e"/>
    <path id="Path_50" data-name="Path 50" d="M197.992,329.113h4.155l-3.468-5.5Zm0,0" transform="translate(-181.833 -297.202)" fill="#272b3e"/>
    <path id="Path_51" data-name="Path 51" d="M333.227,308.345h9.645L339.812,301h-7.526Zm0,0" transform="translate(-305.166 -276.434)" fill="#272b3e"/>
    <path id="Path_52" data-name="Path 52" d="M50,308.345h9.611L60.526,301H53.057Zm0,0" transform="translate(-45.916 -276.434)" fill="#272b3e"/>
    <path id="Path_53" data-name="Path 53" d="M263.094,329.906h4.12l-.7-5.429Zm0,0" transform="translate(-241.622 -297.995)" fill="#272b3e"/>
    <path id="Path_54" data-name="Path 54" d="M13.386,421H3.06L0,428.427H12.468Zm0,0" transform="translate(0 -386.64)" fill="#272b3e"/>
    <path id="Path_55" data-name="Path 55" d="M358.023,421H347.672l.942,7.427h12.47Zm0,0" transform="translate(-319.297 -386.64)" fill="#272b3e"/>
  </g>
</svg>
