<svg xmlns="http://www.w3.org/2000/svg" width="945.073" height="969.064" viewBox="0 0 945.073 969.064"><defs><style>.a{fill:#fff;}.b{fill:#f2f2f2;}.c{font-size:15px;font-family:Poppins-Light, Poppins;font-weight:300;opacity:0.75;}.d,.e,.f{fill:#c49966;}.e{stroke:#c49966;}.e,.f{stroke-width:0.5px;}.f{stroke:#b68e5f;}</style></defs><g transform="translate(6974.826 -2320.644)"><path class="a" d="M1049.789,325.214H217.833L166.863,205.666,217.833,86.118h831.956v239.1Z" transform="translate(-7134.306 2239.949)"/><path class="a" d="M190.565,197.366h831.956l50.97,119.548-50.97,119.548H190.565v-239.1Z" transform="translate(-7107.077 2367.746)"/><path class="a" d="M1049.789,547.71H217.833L166.863,428.162l50.969-119.548h831.956v239.1Z" transform="translate(-7134.306 2495.542)"/><path class="a" d="M190.565,420.1h831.956l50.97,119.548L1022.522,659.2H190.565V420.1Z" transform="translate(-7107.077 2623.611)"/><g transform="translate(-6974.826 2320.644)"><path class="b" d="M1053.737,328.758c-69.329,3.144-138.659,4.3-207.988,4.891-34.666.213-69.332.479-104-.112s-69.329-1.523-104-2.314c-34.664-.956-69.33-1.208-103.993-1.128-17.334.015-34.666.2-52,.4l-52,.969c-34.664.688-69.329,1.594-104,2.071s-69.329.664-103.993.976l-4.173.037-1.713-3.926L202.9,300.841c-4.319-9.932-8.694-19.839-12.918-29.812l-12.772-29.874q-6.427-14.92-12.652-29.926l-1.135-2.729,1.135-2.6c8.662-19.852,17.186-39.765,25.963-59.57,8.76-19.812,17.441-39.657,26.327-59.415l1.493-3.322,3.436.064,43.635.821L309.052,85.5q21.817.538,43.637,1.3c14.545.481,29.09.928,43.635,1.571a.645.645,0,0,1,0,1.289c-14.545.64-29.09,1.089-43.635,1.571q-21.821.767-43.637,1.3l-43.637,1.025-43.635.821,4.929-3.258c-8.107,20.091-16.414,40.1-24.644,60.133-8.212,20.044-16.679,39.982-25.007,59.978V205.9q6.507,14.888,12.835,29.848l12.712,29.9c4.27,9.953,8.389,19.968,12.566,29.962l12.5,29.992-5.885-3.889c34.664.309,69.329.507,103.993.976s69.332,1.384,104,2.069l52,.971c17.332.206,34.664.385,52,.4,34.664.08,69.329-.172,103.993-1.126,34.666-.793,69.33-1.713,104-2.314s69.329-.324,104-.112c69.329.587,138.659,1.747,207.988,4.891a.645.645,0,0,1,0,1.289Z" transform="translate(-163.427 -83.594)"/><path class="b" d="M606.876,199.818q52-2.043,103.993-3,52-1.08,104-1.562,26-.329,52-.393c17.332-.054,34.664-.245,52-.185q52-.019,103.993,1.117l3.176.069,1.115,2.765,24.317,60.273,12.147,30.141c4.009,10.063,8.215,20.044,12.318,30.067l.383.933-.383.862q-6.6,14.846-12.974,29.788c-4.265,9.955-8.627,19.867-12.813,29.855l-12.652,29.926-12.484,30-.582,1.395-1.569.024L918.86,443.568c-34.666.647-69.33,1.3-104,1.586l-104,.784c-34.664.226-69.33.563-103.993.5-69.33.064-138.659-.565-207.988-1.519-34.666-.419-69.332-1.214-104-1.9l-26-.529-26-.716c-17.332-.479-34.664-.928-52-1.571a.645.645,0,0,1,0-1.289c17.334-.642,34.666-1.089,52-1.571l26-.716,26-.526c34.664-.69,69.33-1.485,104-1.9,69.329-.954,138.659-1.584,207.988-1.517,34.664-.064,69.329.273,103.993.5l104,.786c34.666.288,69.33.937,104,1.586l103.993,1.672-2.149,1.42,13-29.777,12.834-29.848c4.308-9.936,8.44-19.947,12.669-29.917s8.415-19.96,12.512-29.986v1.792c-4.39-9.9-8.681-19.844-13.165-29.7l-13.339-29.633-26.651-59.276,4.289,2.834q-52,1.131-103.993,1.115c-17.334.062-34.666-.131-52-.183s-34.666-.176-52-.4q-52-.484-104-1.56-52-1.031-103.993-3a.645.645,0,0,1,0-1.289Z" transform="translate(-132.584 44.005)"/><path class="b" d="M1053.392,552.05c-69.33,2.669-138.659,3.827-207.989,4.557q-26,.325-52,.393c-17.334.052-34.666.245-52,.183q-52,.023-104-1.115L533.42,554.02c-34.666-.5-69.33-.778-104-.619-34.664.021-69.329.526-104,1.115l-103.993,1.824-3.18.056-1.362-3.056q-13.228-29.682-26.208-59.467l-25.923-59.587-1.036-2.383,1.036-2.48,25.07-59.95,12.557-29.966,12.716-29.9,1.773-4.164,4.558-.017c34.664-.131,69.329.208,103.993.374l52,.5,52,.647c34.666.419,69.329,1.212,104,1.9l26,.526,26,.716c17.334.481,34.666.93,52,1.573a.644.644,0,0,1,.621.668.651.651,0,0,1-.621.621c-17.332.64-34.664,1.089-52,1.569l-26,.718-26,.526c-34.666.69-69.33,1.483-104,1.9l-52,.647-52,.5c-34.664.165-69.329.5-103.993.374l6.328-4.181L215,344.882l-12.927,29.807-25.9,59.6v-4.863l25.048,59.961q12.477,30,24.76,60.081l-4.54-3,103.993,1.824c34.666.589,69.332,1.094,104,1.115,34.666.159,69.329-.122,104-.619l103.993-2.048q52-1.131,104-1.115c17.332-.062,34.664.131,52,.183s34.664.176,52,.393c69.329.731,138.659,1.889,207.989,4.557a.646.646,0,0,1,0,1.291Z" transform="translate(-163.082 171.205)"/><path class="b" d="M384.485,422.543c34.664-1.891,69.329-2.937,103.993-3.719,34.666-.823,69.332-1.171,104-1.367s69.329.26,104,1.309c34.664.952,69.329,2.16,103.993,2.37l1.369.009.52,1.24c4.194,9.985,8.348,19.988,12.678,29.915,4.282,9.947,8.565,19.893,12.97,29.788,4.336,9.925,8.791,19.8,13.277,29.661l13.4,29.6.586,1.3-.586,1.474c-8.019,20.127-15.9,40.313-24.034,60.393-8.077,20.1-16.356,40.119-24.663,60.124l-1.5,3.608-4.023.039-52,.5c-17.332.138-34.664.417-52,.367-34.666.148-69.329-.193-104-.572-69.329-.963-138.659-2.415-207.988-5.651a.643.643,0,0,1-.615-.673.65.65,0,0,1,.615-.617c69.329-3.234,138.659-4.686,207.988-5.649,34.666-.38,69.329-.72,104-.572,17.332-.049,34.664.23,52,.365l52,.5-5.52,3.646c8.683-19.844,17.394-39.677,26.307-59.424,8.859-19.769,17.966-39.432,26.937-59.155v2.768l-12.08-30.168c-4.009-10.063-8.051-20.112-12.209-30.113-4.089-10.03-8.3-20.007-12.514-29.986-4.164-10-8.507-19.919-12.807-29.859l1.887,1.248c-34.664.211-69.329,1.416-103.993,2.368q-52,1.576-104,1.309c-34.664-.193-69.329-.542-104-1.364-34.664-.782-69.33-1.829-103.993-3.722a.646.646,0,0,1,0-1.289Z" transform="translate(89.807 299.878)"/></g><text class="c" transform="translate(-6730 2405)"><tspan x="0" y="16">Our natural quartz surface is made with utmost care and precision. Not </tspan><tspan x="0" y="41">only do we use the finest raw materials in the process, we engage </tspan><tspan x="0" y="66">highly-skilled technicians, skilled professionals to carry out our R&amp;D in our </tspan><tspan x="0" y="91">in-house testing laboratory. Our surfaces are par excellence and tick off </tspan><tspan x="0" y="116">all the boxes for the perfect natural quartz surface. </tspan></text><text class="c" transform="translate(-6730 2646)"><tspan x="0" y="16">From handpicking the natural quartz grains from the mines, to </tspan><tspan x="0" y="41">carefully processing them, until the final product is prepared; </tspan><tspan x="0" y="66">every step is scrutinized and undergoes complete quality checks. </tspan></text><text class="c" transform="translate(-6730 2861)"><tspan x="0" y="16">The natural quartz surface is prepared by blending in 90% quartz </tspan><tspan x="0" y="41" xml:space="preserve">aggregates with organic  binders and pigments. They are fed into </tspan><tspan x="0" y="66">mixers and blended together. Once blended, the mixture is transferred </tspan><tspan x="0" y="91">and distributed poured into a mold to form slabs which is then pressed </tspan><tspan x="0" y="116">and compacted with a special vacuum and vibration process with a </tspan><tspan x="0" y="141">pressure of 50 tons.</tspan></text><text class="c" transform="translate(-6730 3092)"><tspan x="0" y="16">Once pressed, the slabs are then moved to kiln and heated at </tspan><tspan x="0" y="41">85 degrees which gives them solidity and strength. The slabs </tspan><tspan x="0" y="66">are then gauged, calibrated and polished to perfection, </tspan><tspan x="0" y="91">Following which these slabs are thoroughly inspected and </tspan><tspan x="0" y="116">made ready to dispatch. PM Quartz manufactures quartz slabs </tspan><tspan x="0" y="141">that come in a variety of colours and designs. </tspan></text><g transform="translate(-6881.6 2881.4)"><path class="d" d="M77.537,25.882,72.055,20.4a9.6,9.6,0,0,0-6.834-2.832H52.084a9.674,9.674,0,0,0-9.566,8.364,4.151,4.151,0,0,0-3.276,3.249L38.8,31.374H37.308L36.647,33.2l-1.756-.823-.755.755V17.568h2.234l2.761-5.523H44.8L48.478,1H8.748L12.43,12.045H18.1l2.761,5.523H23.09V34.135H14.806V32.755a4.147,4.147,0,0,0-4.142-4.142H5.142A4.147,4.147,0,0,0,1,32.755V46.561A4.147,4.147,0,0,0,5.142,50.7h5.523a4.147,4.147,0,0,0,4.142-4.142V45.181H28.613v2.348l1.824.661-.823,1.758,3.515,3.516H21.71a4.147,4.147,0,0,0-4.142,4.142V76.935a4.147,4.147,0,0,0,4.142,4.142h.3L23.393,86.6h13.2l1.379-5.523h28.22L67.573,86.6h13.2l1.379-5.523h.3A4.147,4.147,0,0,0,86.6,76.935V35.516A9.67,9.67,0,0,0,77.537,25.882ZM52.084,20.329H65.221A6.86,6.86,0,0,1,70.1,22.352l3.5,3.5H45.32A6.916,6.916,0,0,1,52.084,20.329ZM12.581,3.761H44.646l-1.84,5.523H14.421Zm8.6,8.284H36.043l-1.381,2.761h-12.1Zm4.669,5.523h5.523V34.135H25.852ZM12.045,46.561a1.381,1.381,0,0,1-1.381,1.381H5.142a1.381,1.381,0,0,1-1.381-1.381V32.755a1.381,1.381,0,0,1,1.381-1.381h5.523a1.381,1.381,0,0,1,1.381,1.381Zm16.568-6.49v2.348H14.806V36.9H30.369l-.752.752.821,1.759ZM38.831,52.328l-.279-.61-1.423-.59-1.654.775-2.538-2.538.775-1.654L33.1,46.22l-1.722-.627V42.006l1.136-.414.61-.279.588-1.422-.773-1.657L35.472,35.7l1.655.775,1.491-.616.627-1.722h3.587l.414,1.136.279.61,1.423.59L46.6,35.7l2.536,2.536-.773,1.657.614,1.49,1.722.627v3.587l-1.136.414-.61.279-.59,1.423.775,1.654L46.6,51.9l-1.654-.775-1.491.616-.627,1.722H39.245Zm-17.121,3.9H44.768l.661-1.824,1.758.823,5.274-5.274-.823-1.758,1.827-.664V40.071l-1.824-.661.821-1.759-5.274-5.273-1.756.823-.664-1.827H41.619l.33-1.653A1.384,1.384,0,0,1,43.3,28.613H76.935a6.911,6.911,0,0,1,6.9,6.9V72.793H20.329V57.606a1.381,1.381,0,0,1,1.381-1.381ZM34.438,83.839H25.549l-.692-2.761H35.128Zm44.181,0H69.73l-.692-2.761H79.309Zm3.84-5.523H21.71a1.381,1.381,0,0,1-1.381-1.381V75.555h63.51v1.381A1.381,1.381,0,0,1,82.458,78.316Z"/><path class="d" d="M38.806,33.9a6.9,6.9,0,1,0-6.9,6.9A6.911,6.911,0,0,0,38.806,33.9Zm-11.045,0A4.142,4.142,0,1,1,31.9,38.045,4.147,4.147,0,0,1,27.761,33.9Z" transform="translate(9.135 9.897)"/><path class="d" d="M54.664,56.329A9.664,9.664,0,1,0,45,46.664,9.677,9.677,0,0,0,54.664,56.329ZM56.045,39.9v8.144H53.284V39.9a6.9,6.9,0,0,1,2.761,0Zm-5.523,1.277v9.629h8.284V41.178a6.9,6.9,0,1,1-8.284,0Z" transform="translate(16.748 13.703)"/><path class="d" d="M64.329,27H45V38.045H64.329Zm-2.761,8.284H47.761V29.761H61.568Z" transform="translate(16.748 9.897)"/><path class="d" d="M17,47h2.761v2.761H17Z" transform="translate(6.09 17.51)"/><path class="d" d="M17,43h2.761v2.761H17Z" transform="translate(6.09 15.987)"/></g><path class="e" d="M97.411,115.795v-6.414H91v-6.414H84.583V51.656H57.324V34.819h4.81V26H40.488v8.819H45.3V51.656H18.039v51.311H11.625v6.414H5.211v6.414H0V118.2H102.623v-2.405Zm-8.819-10.423v4.009H78.17v-4.009Zm-45.7-72.958V28.405H59.73v4.009Zm12.026,2.405V51.656H47.7V34.819ZM20.444,54.061H82.178v48.906H74.963V61.277H27.66v41.69H20.444Zm21.965,48.906a4.393,4.393,0,0,0,0-4.009h21.73a2,2,0,1,1,0,4.009Zm20.527,2.405v4.009H52.514v-4.009Zm1.2-8.819H58.1a10.818,10.818,0,0,0-6.793-19.242h-1.2v6.414a1.2,1.2,0,0,1-2.405,0V78.514a4.415,4.415,0,0,0-4.41-4.41h-4.81V76.51a2.007,2.007,0,0,1,2,2v9.621a10.806,10.806,0,0,0,4.031,8.418H38.483a4.406,4.406,0,0,0-3.926,6.414H30.065V63.682H72.557v39.285H68.065a4.406,4.406,0,0,0-3.926-6.414ZM51.111,90.139A4.409,4.409,0,0,0,46.75,95.2a8.416,8.416,0,0,1-3.857-7.07V78.514a4.383,4.383,0,0,0-.482-2h.883a2.007,2.007,0,0,1,2,2v5.211a3.608,3.608,0,1,0,7.216,0V79.8a8.416,8.416,0,0,1,2.907,15.675,4.408,4.408,0,0,0-4.31-5.339Zm2,4.41a2.005,2.005,0,0,1-1.937,2c-.089,0-.179,0-.268-.007a2,2,0,1,1,2.2-1.994ZM37.281,105.372v4.009H26.858v-4.009Zm-.8-4.41a2,2,0,1,1,2,2A2.007,2.007,0,0,1,36.479,100.963Zm3.207,4.41H50.109v4.009H39.686Zm25.656,0H75.764v4.009H65.342Zm-51.311,0H24.453v4.009H14.03Zm4.009,10.423H7.617v-4.009H18.039Zm12.828,0H20.444v-4.009H30.867Zm12.828,0H33.272v-4.009H43.695Zm12.828,0H46.1v-4.009H56.523Zm12.828,0H58.928v-4.009H69.35Zm12.828,0H71.756v-4.009H82.178Zm12.828,0H84.583v-4.009H95.006Z" transform="translate(-6205.108 3086.8)"/><g transform="translate(-6195.5 2641.001)"><path class="d" d="M56.926,209.6a5.108,5.108,0,0,0-4.717-3.131H47.025a5.15,5.15,0,0,0-3.633,1.513l-.554.559a1.489,1.489,0,0,1-2.425-.46l-5.866-13.62a5.114,5.114,0,0,0-4.7-3.094H20.573L12.22,172.442a5.119,5.119,0,0,0-4.682-3.051H2.314a1.814,1.814,0,1,0,0,3.629H7.538a1.489,1.489,0,0,1,1.362.888l7.735,17.524a7.562,7.562,0,0,0-6.008,4.6l-3.146,7.551a1.815,1.815,0,0,0,3.35,1.395l3.145-7.551a3.948,3.948,0,0,1,3.654-2.436H29.845a1.487,1.487,0,0,1,1.368.9l5.867,13.62a5.118,5.118,0,0,0,8.334,1.581l.554-.559a1.5,1.5,0,0,1,1.057-.44h5.183a1.486,1.486,0,0,1,1.372.912l8.188,19.436a1.814,1.814,0,1,0,3.344-1.409Zm0,0" transform="translate(0 -138.656)"/><path class="d" d="M187.057,55.485l-2.551-2.55c-.031-.031-.064-.062-.1-.091l-.179-.154a1.814,1.814,0,1,0-2.371,2.747l.128.11,2.5,2.5a2.239,2.239,0,0,1,0,3.163l-5.177,5.177a2.239,2.239,0,0,1-3.164,0l-1.274-1.271,3.823-3.842a1.815,1.815,0,1,0-2.572-2.56l-3.719,3.738-29.957-34.78,3.323-3.323L169.5,44.788a1.814,1.814,0,0,0,2.368-2.749l-23.518-20.26L166.985,3.142a1.815,1.815,0,0,0-1.1-3.088,29.669,29.669,0,0,0-9.422,1.005,42.431,42.431,0,0,0-18.428,10.279L137.3,10.6a1.816,1.816,0,0,0-2.566,0l-5.869,5.869a1.814,1.814,0,0,0,0,2.566l.736.736A42.425,42.425,0,0,0,119.322,38.2a29.719,29.719,0,0,0-1.005,9.422,1.815,1.815,0,0,0,3.089,1.1l18.473-18.473,31.059,36.06c.03.034.06.067.093.1l2.554,2.549a5.873,5.873,0,0,0,8.295,0l5.177-5.178a5.873,5.873,0,0,0,0-8.3ZM157.185,4.62a32.482,32.482,0,0,1,3.954-.764L145.846,19.148,140.6,13.905A38.819,38.819,0,0,1,157.185,4.62Zm-21.167,9.831.709.709,0,0,6.551,6.551-3.3,3.3-6.552-6.551-.711-.712Zm-3.849,7.889,5.243,5.243L122.12,42.874A37.423,37.423,0,0,1,132.168,22.34Zm0,0" transform="translate(-96.396 0)"/><path class="d" d="M41.119,93.787a1.814,1.814,0,0,0,3.265-1.042l.363-14.276a1.814,1.814,0,0,0-2.347-1.78l-8.994,2.764a1.814,1.814,0,0,0-.919,2.823ZM41.055,80.9l-.166,6.533-3.951-5.268Zm0,0" transform="translate(-25.887 -62.709)"/><path class="d" d="M204.3,217.956a1.814,1.814,0,0,0-2.812-.852L191.348,224.8a1.814,1.814,0,0,0,1.1,3.26h12.8a1.814,1.814,0,0,0,1.715-2.407Zm-6.46,6.473,3.849-2.922,1.01,2.922Zm0,0" transform="translate(-155.632 -177.41)"/><path class="d" d="M29.625,397.4a1.815,1.815,0,1,0-.719,2.235,1.833,1.833,0,0,0,.719-2.235Zm0,0" transform="translate(-20.986 -324.38)"/><path class="d" d="M431.987,261.674a1.814,1.814,0,1,0,.719-2.235A1.833,1.833,0,0,0,431.987,261.674Zm0,0" transform="translate(-353.085 -212.146)"/><path class="d" d="M217.216,303.254a1.815,1.815,0,0,0,1.069,2.333l9.288,3.452a1.814,1.814,0,1,0,1.264-3.4l-9.288-3.452A1.814,1.814,0,0,0,217.216,303.254Zm0,0" transform="translate(-177.301 -247.263)"/><path class="d" d="M124.326,66.082a1.811,1.811,0,0,0,2.155-1.393l1.644-7.655a1.815,1.815,0,0,0-3.548-.762l-1.644,7.655A1.814,1.814,0,0,0,124.326,66.082Zm0,0" transform="translate(-100.185 -44.889)"/></g><g transform="translate(-6872.125 2413.335)"><path class="f" d="M5.11,74.1c0-.1,1.217-9.137,5.21-12.054a19.5,19.5,0,0,1,3.338-1.834V71.459c-1.9.694-4.312,2.637-4.312,6.778V92.644a1.27,1.27,0,0,0,1.273,1.272H66.711a1.268,1.268,0,0,0,1.269-1.272V78.237c0-4.121-2.413-6.064-4.313-6.778V60.266a19.551,19.551,0,0,1,3.24,1.786c3.989,2.907,5.2,11.958,5.21,12.053l2.468,18.642,2.54-.33L74.661,73.773c-.053-.411-1.356-10.221-6.238-13.779a27.083,27.083,0,0,0-5.229-2.7,1.279,1.279,0,0,0-.358-.2l-1.061-.372c-1.624-.628-3.338-1.219-4.972-1.744l-.932-.33a1.3,1.3,0,0,0-.3-.088c-2.732-.846-5.129-1.5-6.41-1.836V49.874a14.766,14.766,0,0,0,6.189-12.007V35.612a3.757,3.757,0,0,0,1.363.261,3.912,3.912,0,0,0,3.908-3.905V28.453a3.916,3.916,0,0,0-1.56-3.117,36.641,36.641,0,0,0,.482-6.513c0-14.407-10.024-17.8-15.988-18.567A43.173,43.173,0,0,0,38.617,0a38.623,38.623,0,0,0-5.671.383c-5.662.891-15.161,4.475-15.161,18.451a36.928,36.928,0,0,0,.493,6.5,3.891,3.891,0,0,0-1.56,3.117v3.515a3.914,3.914,0,0,0,3.88,3.948h.054a3.849,3.849,0,0,0,1.362-.261V37.9A14.762,14.762,0,0,0,28.1,49.831v2.952a124.762,124.762,0,0,0-13.633,4.323h-.043a27.472,27.472,0,0,0-5.591,2.856C3.949,63.52,2.642,73.323,2.589,73.732L.125,92.374l2.545.332ZM58.059,31.968a1.365,1.365,0,0,1-2.729,0v-.349a6.066,6.066,0,0,0,2.729-3.04Zm-24.69-29.1a35.857,35.857,0,0,1,5.249-.319,37.847,37.847,0,0,1,4.567.246c6.279.769,13.762,4.186,13.762,16.041a38.914,38.914,0,0,1-.27,5.216c-17.706-7.361-31.466-2.312-36.024-.135a38.719,38.719,0,0,1-.289-5.081C20.363,7.347,27.437,3.825,33.369,2.866Zm-11.354,29.1a1.365,1.365,0,0,1-2.729,0V28.579a6.1,6.1,0,0,0,2.729,3.036Zm-.848-5.5c3.443-1.695,17.28-7.432,34.951.086-.7,2.23-1.695,2.781-2.442,3-1.485.441-3.95-.171-6.566-.848a32.1,32.1,0,0,0-8.473-1.485,32.091,32.091,0,0,0-8.477,1.485c-2.622.722-5.086,1.33-6.568.848-.686-.221-1.7-.8-2.408-3.087Zm3.391,11.4V32.232h.353a23.954,23.954,0,0,0,5.975-1.138,29.862,29.862,0,0,1,7.791-1.4,29.83,29.83,0,0,1,7.787,1.4,23.954,23.954,0,0,0,5.975,1.138h.354v5.626a12.264,12.264,0,0,1-12.26,12.254H36.811A12.268,12.268,0,0,1,24.558,37.858ZM46.589,51.347V53.3L38.658,63.468,30.633,53.3V51.292a14.65,14.65,0,0,0,6.17,1.36h3.721a14.614,14.614,0,0,0,6.065-1.311ZM23.182,56.793c2.487-.758,4.612-1.333,5.707-1.62l9.788,12.372,9.679-12.372c1.108.3,3.276.846,5.8,1.65V71.63H23.182ZM15.11,73.738a1.267,1.267,0,0,0,1.1-1.262V59.154c1.431-.551,2.95-1.084,4.432-1.566V72.9a1.273,1.273,0,0,0,1.275,1.272H55.43A1.272,1.272,0,0,0,56.7,72.9V57.648L61.13,59.2V72.445a1.278,1.278,0,0,0,1.106,1.261c.126,0,3.213.472,3.213,4.527v13.1H11.9V78.222c0-3.914,2.888-4.475,3.213-4.516Zm0,0" transform="translate(0 0)"/><path class="f" d="M27.133,139.684h6.98V142h-6.98Zm0,0" transform="translate(-12.196 -63.079)"/><path class="f" d="M100.969,139.684h6.975V142h-6.975Zm0,0" transform="translate(-45.539 -63.079)"/></g></g></svg>