<svg id="Page-1" xmlns="http://www.w3.org/2000/svg" width="50.237" height="50.237" viewBox="0 0 50.237 50.237">
  <g id="_014---Heatproof-Fabric" data-name="014---Heatproof-Fabric" transform="translate(0 0)">
    <path id="Shape" d="M17.6,263.729a2.512,2.512,0,0,0,2.51,2.512H65.325a2.512,2.512,0,0,0,0-5.024H63.543l2.265-3.4a2.512,2.512,0,0,0-.481-4.975H60.3V247.82h1.672a.837.837,0,0,0,.644-1.373l-4.186-5.024a.866.866,0,0,0-1.288,0l-4.186,5.024a.837.837,0,0,0,.644,1.373h1.675v5.024H30.159V247.82h1.675a.837.837,0,0,0,.644-1.373l-4.186-5.024a.866.866,0,0,0-1.288,0l-4.186,5.024a.837.837,0,0,0,.644,1.373h1.675v5.024H20.112a2.512,2.512,0,0,0,0,5.024H21.9l-2.265,3.4A2.512,2.512,0,0,0,17.6,263.729Zm48.562,0a.837.837,0,0,1-.837.837H20.112a.837.837,0,1,1,0-1.675H65.325a.837.837,0,0,1,.837.837Zm-35.892-5.861-2.233,3.349H25.862l2.233-3.349Zm24.9,3.349,2.227-3.349H59.58l-2.233,3.349Zm-2.009,0H50.984l2.233-3.349h2.177Zm-4.186,0H46.8l2.233-3.349h2.177Zm-4.186,0H42.611l2.233-3.349h2.177Zm-4.186,0H38.425l2.233-3.349h2.177Zm-4.186,0H34.238l2.233-3.349h2.177Zm-4.186,0H30.052l2.233-3.349h2.177Zm27.128,0,2.227-3.349h2.177l-2.233,3.349Zm-3.245-15.071h-.723l2.4-2.877,2.4,2.879h-.725a.837.837,0,0,0-.837.837v5.861H56.952v-5.863a.837.837,0,0,0-.835-.837Zm-30.142,0h-.724l2.4-2.877,2.4,2.879h-.725a.837.837,0,0,0-.837.837v5.861H26.812v-5.863a.837.837,0,0,0-.837-.837Zm-6.7,9.21a.837.837,0,0,1,.837-.837H65.327a.837.837,0,1,1,0,1.675H20.112a.837.837,0,0,1-.835-.837Zm6.809,2.512-2.233,3.349H21.676l2.233-3.349Z" transform="translate(-17.6 -216.004)" fill="#c49966"/>
    <path id="Shape-2" data-name="Shape" d="M168.044,7a5.867,5.867,0,0,0-5.863,5.861v11.1a10.047,10.047,0,1,0,11.722,0v-11.1A5.866,5.866,0,0,0,168.044,7Zm8.373,25.118a8.373,8.373,0,1,1-12.939-7.012.835.835,0,0,0,.38-.7V12.861a4.186,4.186,0,1,1,8.373,0V24.4a.838.838,0,0,0,.381.7,8.35,8.35,0,0,1,3.805,7.012Z" transform="translate(-142.923 -7)" fill="#c49966"/>
    <path id="Shape-3" data-name="Shape" d="M198.406,74.5V64.112a2.512,2.512,0,1,0-5.024,0V74.5l-1.138.743a6.7,6.7,0,1,0,7.3,0Zm2.514,6.354a5.024,5.024,0,1,1-7.759-4.208l1.519-.992a.835.835,0,0,0,.379-.7V64.112a.837.837,0,0,1,1.675,0V74.954a.835.835,0,0,0,.38.7l1.519.992A5.009,5.009,0,0,1,200.92,80.857Z" transform="translate(-170.775 -55.739)" fill="#c49966"/>
  </g>
</svg>
